<mxGraphModel dx="0" dy="0" grid="1" gridSize="10" guides="1" tooltips="1" connect="1" arrows="1" fold="1" page="0" pageScale="1" background="none" math="0" shadow="0">
  <root>
    <mxCell id="0" />
    <mxCell id="1" parent="0" />
    <mxCell id="node95" parent="1" vertex="1" value="&lt;p style=&quot;margin:0px;margin-top:4px;text-align:center;&quot;&gt;&lt;i&gt;&amp;lt;&amp;lt;enumeration&amp;gt;&amp;gt;&lt;/i&gt;&lt;br/&gt;&lt;b&gt;Ability&lt;/b&gt;&lt;/p&gt;&lt;hr size=&quot;1&quot;/&gt;&lt;p style=&quot;margin:0 0 0 4px;line-height:1.6;&quot;&gt;+ FARMING: &lt;br/&gt;+ FISHING: &lt;br/&gt;+ EXTRACTING: &lt;br/&gt;+ FORAGING: &lt;/p&gt;&lt;hr size=&quot;1&quot;/&gt;&lt;p style=&quot;margin:0 0 0 4px;line-height:1.6;&quot;&gt;+ valueOf(String): Ability&lt;br/&gt;+ values(): Ability[]&lt;/p&gt;" style="verticalAlign=top;align=left;overflow=fill;fontSize=14;fontFamily=Helvetica;html=1;rounded=0;shadow=0;comic=0;labelBackgroundColor=none;strokeWidth=1;">
      <mxGeometry x="2557" y="2211" width="232" height="227" as="geometry" />
    </mxCell>
    <mxCell id="node98" parent="1" vertex="1" value="&lt;p style=&quot;margin:0px;margin-top:4px;text-align:center;&quot;&gt;&lt;b&gt;Account&lt;/b&gt;&lt;/p&gt;&lt;hr size=&quot;1&quot;/&gt;&lt;p style=&quot;margin:0 0 0 4px;line-height:1.6;&quot;&gt;- id: Integer&lt;br/&gt;- golds: Integer&lt;/p&gt;&lt;hr size=&quot;1&quot;/&gt;&lt;p style=&quot;margin:0 0 0 4px;line-height:1.6;&quot;&gt;+ getId(): Integer&lt;br/&gt;+ getGolds(): Integer&lt;br/&gt;+ setId(Integer): void&lt;br/&gt;+ setGolds(Integer): void&lt;br/&gt;+ toString(): String&lt;/p&gt;" style="verticalAlign=top;align=left;overflow=fill;fontSize=14;fontFamily=Helvetica;html=1;rounded=0;shadow=0;comic=0;labelBackgroundColor=none;strokeWidth=1;">
      <mxGeometry x="649" y="1822" width="234" height="257" as="geometry" />
    </mxCell>
    <mxCell id="node8" parent="1" vertex="1" value="&lt;p style=&quot;margin:0px;margin-top:4px;text-align:center;&quot;&gt;&lt;i&gt;&amp;lt;&amp;lt;interface&amp;gt;&amp;gt;&lt;/i&gt;&lt;br/&gt;&lt;b&gt;Actor&lt;/b&gt;&lt;/p&gt;&lt;hr size=&quot;1&quot;/&gt;" style="verticalAlign=top;align=left;overflow=fill;fontSize=14;fontFamily=Helvetica;html=1;rounded=0;shadow=0;comic=0;labelBackgroundColor=none;strokeWidth=1;">
      <mxGeometry x="659" y="2546" width="114" height="44" as="geometry" />
    </mxCell>
    <mxCell id="node38" parent="1" vertex="1" value="&lt;p style=&quot;margin:0px;margin-top:4px;text-align:center;&quot;&gt;&lt;b&gt;Animal&lt;/b&gt;&lt;/p&gt;&lt;hr size=&quot;1&quot;/&gt;&lt;p style=&quot;margin:0 0 0 4px;line-height:1.6;&quot;&gt;- milk: Boolean&lt;br/&gt;- lastProductGotten: TimeAndDate&lt;br/&gt;- animalType: AnimalType&lt;br/&gt;- grassEaten: Boolean&lt;br/&gt;- relationShipQuality: Integer&lt;br/&gt;- tet: Integer&lt;br/&gt;- owner: Player&lt;br/&gt;- isFeed: Boolean&lt;br/&gt;- shaving: Boolean&lt;/p&gt;" style="verticalAlign=top;align=left;overflow=fill;fontSize=14;fontFamily=Helvetica;html=1;rounded=0;shadow=0;comic=0;labelBackgroundColor=none;strokeWidth=1;">
      <mxGeometry x="3846" y="1906" width="312" height="316" as="geometry" />
    </mxCell>
    <mxCell id="node74" parent="1" vertex="1" value="&lt;p style=&quot;margin:0px;margin-top:4px;text-align:center;&quot;&gt;&lt;b&gt;AnimalProduct&lt;/b&gt;&lt;/p&gt;&lt;hr size=&quot;1&quot;/&gt;&lt;p style=&quot;margin:0 0 0 4px;line-height:1.6;&quot;&gt;- animalProductType: AnimalProductType&lt;/p&gt;" style="verticalAlign=top;align=left;overflow=fill;fontSize=14;fontFamily=Helvetica;html=1;rounded=0;shadow=0;comic=0;labelBackgroundColor=none;strokeWidth=1;">
      <mxGeometry x="3843" y="3844" width="365" height="82" as="geometry" />
    </mxCell>
    <mxCell id="node99" parent="1" vertex="1" value="&lt;p style=&quot;margin:0px;margin-top:4px;text-align:center;&quot;&gt;&lt;i&gt;&amp;lt;&amp;lt;enumeration&amp;gt;&amp;gt;&lt;/i&gt;&lt;br/&gt;&lt;b&gt;AnimalProductType&lt;/b&gt;&lt;/p&gt;&lt;hr size=&quot;1&quot;/&gt;&lt;p style=&quot;margin:0 0 0 4px;line-height:1.6;&quot;&gt;+ HEN_BIG_EGG: &lt;br/&gt;+ DINOSAUR_EGG: &lt;br/&gt;+ DUCK_EGG: &lt;br/&gt;+ MILK: &lt;br/&gt;+ DUCK_FEATHER: &lt;br/&gt;+ RABBIT_LEG: &lt;br/&gt;+ TRUFFLE: &lt;br/&gt;+ HEN_EGG: &lt;br/&gt;+ BIG_MILK: &lt;br/&gt;+ BIG_GOAT_MILK: &lt;br/&gt;+ RABBIT_WOOL: &lt;br/&gt;+ SHEEP_WOOL: &lt;br/&gt;+ GOAT_MILK: &lt;br/&gt;- price: Integer&lt;/p&gt;&lt;hr size=&quot;1&quot;/&gt;&lt;p style=&quot;margin:0 0 0 4px;line-height:1.6;&quot;&gt;+ values(): AnimalProductType[]&lt;br/&gt;+ valueOf(String): AnimalProductType&lt;/p&gt;" style="verticalAlign=top;align=left;overflow=fill;fontSize=14;fontFamily=Helvetica;html=1;rounded=0;shadow=0;comic=0;labelBackgroundColor=none;strokeWidth=1;">
      <mxGeometry x="3990" y="2618" width="334" height="527" as="geometry" />
    </mxCell>
    <mxCell id="node17" parent="1" vertex="1" value="&lt;p style=&quot;margin:0px;margin-top:4px;text-align:center;&quot;&gt;&lt;i&gt;&amp;lt;&amp;lt;enumeration&amp;gt;&amp;gt;&lt;/i&gt;&lt;br/&gt;&lt;b&gt;AnimalType&lt;/b&gt;&lt;/p&gt;&lt;hr size=&quot;1&quot;/&gt;&lt;p style=&quot;margin:0 0 0 4px;line-height:1.6;&quot;&gt;- productPeriod: Integer&lt;br/&gt;+ RABBIT: &lt;br/&gt;+ SHEEP: &lt;br/&gt;- food: Product&lt;br/&gt;- productList: List&amp;lt;AnimalProductType&amp;gt;&lt;br/&gt;- price: Integer&lt;br/&gt;+ COW: &lt;br/&gt;- isBarnAnimal: Boolean&lt;br/&gt;+ PIG: &lt;br/&gt;+ DUCK: &lt;br/&gt;+ DINOSAUR: &lt;br/&gt;+ HEN: &lt;br/&gt;+ GOAT: &lt;/p&gt;&lt;hr size=&quot;1&quot;/&gt;&lt;p style=&quot;margin:0 0 0 4px;line-height:1.6;&quot;&gt;+ valueOf(String): AnimalType&lt;br/&gt;+ getProductPeriod(): Integer&lt;br/&gt;+ getPrice(): Integer&lt;br/&gt;+ getProductList(): List&amp;lt;AnimalProductType&amp;gt;&lt;br/&gt;+ getFood(): Product&lt;br/&gt;+ getIsBarnAnimal(): Boolean&lt;br/&gt;+ toString(): String&lt;br/&gt;+ values(): AnimalType[]&lt;/p&gt;" style="verticalAlign=top;align=left;overflow=fill;fontSize=14;fontFamily=Helvetica;html=1;rounded=0;shadow=0;comic=0;labelBackgroundColor=none;strokeWidth=1;">
      <mxGeometry x="193" y="1926" width="394" height="677" as="geometry" />
    </mxCell>
    <mxCell id="node4" parent="1" vertex="1" value="&lt;p style=&quot;margin:0px;margin-top:4px;text-align:center;&quot;&gt;&lt;i&gt;&amp;lt;&amp;lt;enumeration&amp;gt;&amp;gt;&lt;/i&gt;&lt;br/&gt;&lt;b&gt;Axe&lt;/b&gt;&lt;/p&gt;&lt;hr size=&quot;1&quot;/&gt;&lt;p style=&quot;margin:0 0 0 4px;line-height:1.6;&quot;&gt;+ IRIDIUM: &lt;br/&gt;- energyCost: int&lt;br/&gt;- level: int&lt;br/&gt;+ NORMAL: &lt;br/&gt;+ GOLD: &lt;br/&gt;+ IRON: &lt;br/&gt;+ CUPPER: &lt;/p&gt;&lt;hr size=&quot;1&quot;/&gt;&lt;p style=&quot;margin:0 0 0 4px;line-height:1.6;&quot;&gt;+ values(): Axe[]&lt;br/&gt;+ valueOf(String): Axe&lt;br/&gt;+ getEnergyCost(): int&lt;br/&gt;+ getLevel(): int&lt;/p&gt;" style="verticalAlign=top;align=left;overflow=fill;fontSize=14;fontFamily=Helvetica;html=1;rounded=0;shadow=0;comic=0;labelBackgroundColor=none;strokeWidth=1;">
      <mxGeometry x="5531" y="2171" width="217" height="377" as="geometry" />
    </mxCell>
    <mxCell id="node34" parent="1" vertex="1" value="&lt;p style=&quot;margin:0px;margin-top:4px;text-align:center;&quot;&gt;&lt;b&gt;BackPack&lt;/b&gt;&lt;/p&gt;&lt;hr size=&quot;1&quot;/&gt;&lt;p style=&quot;margin:0 0 0 4px;line-height:1.6;&quot;&gt;- isInfinite: Boolean&lt;br/&gt;- capacity: Integer&lt;/p&gt;&lt;hr size=&quot;1&quot;/&gt;&lt;p style=&quot;margin:0 0 0 4px;line-height:1.6;&quot;&gt;+ getCapacity(): Integer&lt;br/&gt;+ getInfinite(): Boolean&lt;br/&gt;+ setCapacity(Integer): void&lt;br/&gt;+ setIsInfinite(boolean): void&lt;/p&gt;" style="verticalAlign=top;align=left;overflow=fill;fontSize=14;fontFamily=Helvetica;html=1;rounded=0;shadow=0;comic=0;labelBackgroundColor=none;strokeWidth=1;">
      <mxGeometry x="6390" y="2546" width="265" height="227" as="geometry" />
    </mxCell>
    <mxCell id="node35" parent="1" vertex="1" value="&lt;p style=&quot;margin:0px;margin-top:4px;text-align:center;&quot;&gt;&lt;b&gt;Barn&lt;/b&gt;&lt;/p&gt;&lt;hr size=&quot;1&quot;/&gt;" style="verticalAlign=top;align=left;overflow=fill;fontSize=14;fontFamily=Helvetica;html=1;rounded=0;shadow=0;comic=0;labelBackgroundColor=none;strokeWidth=1;">
      <mxGeometry x="566" y="2790" width="106" height="38" as="geometry" />
    </mxCell>
    <mxCell id="node50" parent="1" vertex="1" value="&lt;p style=&quot;margin:0px;margin-top:4px;text-align:center;&quot;&gt;&lt;b&gt;BigBackPack&lt;/b&gt;&lt;/p&gt;&lt;hr size=&quot;1&quot;/&gt;&lt;p style=&quot;margin:0 0 0 4px;line-height:1.6;&quot;&gt;+ getCapacity(): Integer&lt;br/&gt;+ getInfinite(): Boolean&lt;/p&gt;" style="verticalAlign=top;align=left;overflow=fill;fontSize=14;fontFamily=Helvetica;html=1;rounded=0;shadow=0;comic=0;labelBackgroundColor=none;strokeWidth=1;">
      <mxGeometry x="6394" y="2837" width="228" height="114" as="geometry" />
    </mxCell>
    <mxCell id="node65" parent="1" vertex="1" value="&lt;p style=&quot;margin:0px;margin-top:4px;text-align:center;&quot;&gt;&lt;i&gt;&amp;lt;&amp;lt;enumeration&amp;gt;&amp;gt;&lt;/i&gt;&lt;br/&gt;&lt;b&gt;BlackSmithStuff&lt;/b&gt;&lt;/p&gt;&lt;hr size=&quot;1&quot;/&gt;&lt;p style=&quot;margin:0 0 0 4px;line-height:1.6;&quot;&gt;+ IRON_ORE: &lt;br/&gt;+ COAL: &lt;br/&gt;+ COPPER_ORE: &lt;br/&gt;- dailyLimit: Integer&lt;br/&gt;- price: Integer&lt;br/&gt;+ GOLD_ORE: &lt;br/&gt;- mineralType: MineralType&lt;/p&gt;&lt;hr size=&quot;1&quot;/&gt;&lt;p style=&quot;margin:0 0 0 4px;line-height:1.6;&quot;&gt;+ values(): BlackSmithStuff[]&lt;br/&gt;+ valueOf(String): BlackSmithStuff&lt;/p&gt;" style="verticalAlign=top;align=left;overflow=fill;fontSize=14;fontFamily=Helvetica;html=1;rounded=0;shadow=0;comic=0;labelBackgroundColor=none;strokeWidth=1;">
      <mxGeometry x="2465" y="1530" width="307" height="317" as="geometry" />
    </mxCell>
    <mxCell id="node29" parent="1" vertex="1" value="&lt;p style=&quot;margin:0px;margin-top:4px;text-align:center;&quot;&gt;&lt;i&gt;&amp;lt;&amp;lt;enumeration&amp;gt;&amp;gt;&lt;/i&gt;&lt;br/&gt;&lt;b&gt;BlackSmithUpgrade&lt;/b&gt;&lt;/p&gt;&lt;hr size=&quot;1&quot;/&gt;&lt;p style=&quot;margin:0 0 0 4px;line-height:1.6;&quot;&gt;+ values(): BlackSmithUpgrade[]&lt;br/&gt;+ valueOf(String): BlackSmithUpgrade&lt;/p&gt;" style="verticalAlign=top;align=left;overflow=fill;fontSize=14;fontFamily=Helvetica;html=1;rounded=0;shadow=0;comic=0;labelBackgroundColor=none;strokeWidth=1;">
      <mxGeometry x="4947" y="2923" width="336" height="133" as="geometry" />
    </mxCell>
    <mxCell id="node16" parent="1" vertex="1" value="&lt;p style=&quot;margin:0px;margin-top:4px;text-align:center;&quot;&gt;&lt;b&gt;Buff&lt;/b&gt;&lt;/p&gt;&lt;hr size=&quot;1&quot;/&gt;&lt;p style=&quot;margin:0 0 0 4px;line-height:1.6;&quot;&gt;- buffImpact: Integer&lt;br/&gt;- id: Integer&lt;br/&gt;- maxPower: Integer&lt;br/&gt;- ability: Ability&lt;/p&gt;&lt;hr size=&quot;1&quot;/&gt;&lt;p style=&quot;margin:0 0 0 4px;line-height:1.6;&quot;&gt;+ getId(): Integer&lt;br/&gt;+ getMaxPower(): Integer&lt;br/&gt;+ getAbility(): Ability&lt;br/&gt;+ getBuffImpact(): Integer&lt;br/&gt;+ setId(Integer): void&lt;br/&gt;+ setMaxPower(Integer): void&lt;br/&gt;+ setAbility(Ability): void&lt;br/&gt;+ setBuffImpact(Integer): void&lt;br/&gt;+ toString(): String&lt;/p&gt;" style="verticalAlign=top;align=left;overflow=fill;fontSize=14;fontFamily=Helvetica;html=1;rounded=0;shadow=0;comic=0;labelBackgroundColor=none;strokeWidth=1;">
      <mxGeometry x="5316" y="995" width="273" height="437" as="geometry" />
    </mxCell>
    <mxCell id="node108" parent="1" vertex="1" value="&lt;p style=&quot;margin:0px;margin-top:4px;text-align:center;&quot;&gt;&lt;b&gt;Cage&lt;/b&gt;&lt;/p&gt;&lt;hr size=&quot;1&quot;/&gt;&lt;p style=&quot;margin:0 0 0 4px;line-height:1.6;&quot;&gt;- size: Integer&lt;/p&gt;&lt;hr size=&quot;1&quot;/&gt;&lt;p style=&quot;margin:0 0 0 4px;line-height:1.6;&quot;&gt;+ getSize(): Integer&lt;br/&gt;+ setSize(Integer): void&lt;br/&gt;+ toString(): String&lt;/p&gt;" style="verticalAlign=top;align=left;overflow=fill;fontSize=14;fontFamily=Helvetica;html=1;rounded=0;shadow=0;comic=0;labelBackgroundColor=none;strokeWidth=1;">
      <mxGeometry x="2037" y="2929" width="222" height="167" as="geometry" />
    </mxCell>
    <mxCell id="node11" parent="1" vertex="1" value="&lt;p style=&quot;margin:0px;margin-top:4px;text-align:center;&quot;&gt;&lt;b&gt;CarpenterShop&lt;/b&gt;&lt;/p&gt;&lt;hr size=&quot;1&quot;/&gt;" style="verticalAlign=top;align=left;overflow=fill;fontSize=14;fontFamily=Helvetica;html=1;rounded=0;shadow=0;comic=0;labelBackgroundColor=none;strokeWidth=1;">
      <mxGeometry x="4969" y="3848" width="207" height="38" as="geometry" />
    </mxCell>
    <mxCell id="node89" parent="1" vertex="1" value="&lt;p style=&quot;margin:0px;margin-top:4px;text-align:center;&quot;&gt;&lt;b&gt;CookingMenu&lt;/b&gt;&lt;/p&gt;&lt;hr size=&quot;1&quot;/&gt;" style="verticalAlign=top;align=left;overflow=fill;fontSize=14;fontFamily=Helvetica;html=1;rounded=0;shadow=0;comic=0;labelBackgroundColor=none;strokeWidth=1;">
      <mxGeometry x="672" y="1428" width="196" height="38" as="geometry" />
    </mxCell>
    <mxCell id="node45" parent="1" vertex="1" value="&lt;p style=&quot;margin:0px;margin-top:4px;text-align:center;&quot;&gt;&lt;b&gt;Cottage&lt;/b&gt;&lt;/p&gt;&lt;hr size=&quot;1&quot;/&gt;" style="verticalAlign=top;align=left;overflow=fill;fontSize=14;fontFamily=Helvetica;html=1;rounded=0;shadow=0;comic=0;labelBackgroundColor=none;strokeWidth=1;">
      <mxGeometry x="660" y="3002" width="139" height="38" as="geometry" />
    </mxCell>
    <mxCell id="node67" parent="1" vertex="1" value="&lt;p style=&quot;margin:0px;margin-top:4px;text-align:center;&quot;&gt;&lt;b&gt;Craft&lt;/b&gt;&lt;/p&gt;&lt;hr size=&quot;1&quot;/&gt;&lt;p style=&quot;margin:0 0 0 4px;line-height:1.6;&quot;&gt;- id: Integer&lt;br/&gt;~ craftType: CraftType&lt;/p&gt;&lt;hr size=&quot;1&quot;/&gt;&lt;p style=&quot;margin:0 0 0 4px;line-height:1.6;&quot;&gt;+ getId(): Integer&lt;br/&gt;+ getCraftType(): CraftType&lt;br/&gt;+ setId(Integer): void&lt;br/&gt;+ setCraftType(CraftType): void&lt;br/&gt;+ toString(): String&lt;/p&gt;" style="verticalAlign=top;align=left;overflow=fill;fontSize=14;fontFamily=Helvetica;html=1;rounded=0;shadow=0;comic=0;labelBackgroundColor=none;strokeWidth=1;">
      <mxGeometry x="2202" y="2377" width="291" height="257" as="geometry" />
    </mxCell>
    <mxCell id="node90" parent="1" vertex="1" value="&lt;p style=&quot;margin:0px;margin-top:4px;text-align:center;&quot;&gt;&lt;i&gt;&amp;lt;&amp;lt;enumeration&amp;gt;&amp;gt;&lt;/i&gt;&lt;br/&gt;&lt;b&gt;CraftType&lt;/b&gt;&lt;/p&gt;&lt;hr size=&quot;1&quot;/&gt;&lt;p style=&quot;margin:0 0 0 4px;line-height:1.6;&quot;&gt;+ FISH_SMOKER: &lt;br/&gt;+ MYSTIC_TREE_SEED: &lt;br/&gt;- abilities: Map&amp;lt;Ability, Integer&amp;gt;&lt;br/&gt;+ FORNACE: &lt;br/&gt;- sellPrice: Integer&lt;br/&gt;+ CHERRY_BOMB: &lt;br/&gt;+ BEE_HOUSE: &lt;br/&gt;+ KEG: &lt;br/&gt;+ SCARE_CROW: &lt;br/&gt;+ DELUXE_SCARECROW: &lt;br/&gt;+ LOOM: &lt;br/&gt;+ OIL_MAKER: &lt;br/&gt;+ CHEESE_PRERSS: &lt;br/&gt;+ QUALITY_SPRINKLER: &lt;br/&gt;- description: String&lt;br/&gt;+ SPRINKLER: &lt;br/&gt;+ DEHYDRATOR: &lt;br/&gt;+ BOMB: &lt;br/&gt;+ MAYONNAISE_MACHINE: &lt;br/&gt;+ PRESERVES_JAR: &lt;br/&gt;+ MEGA_BOMB: &lt;br/&gt;+ CHARCOAL_KLIN: &lt;br/&gt;+ IRIDIUM_SPRINKLER: &lt;br/&gt;- products: Map&amp;lt;Product, Integer&amp;gt;&lt;/p&gt;&lt;hr size=&quot;1&quot;/&gt;&lt;p style=&quot;margin:0 0 0 4px;line-height:1.6;&quot;&gt;+ getDescription(): String&lt;br/&gt;+ getProducts(): Map&amp;lt;Product, Integer&amp;gt;&lt;br/&gt;+ getSellPrice(): Integer&lt;br/&gt;+ getAbilities(): Map&amp;lt;Ability, Integer&amp;gt;&lt;br/&gt;+ toString(): String&lt;br/&gt;+ values(): CraftType[]&lt;br/&gt;+ valueOf(String): CraftType&lt;/p&gt;" style="verticalAlign=top;align=left;overflow=fill;fontSize=14;fontFamily=Helvetica;html=1;rounded=0;shadow=0;comic=0;labelBackgroundColor=none;strokeWidth=1;">
      <mxGeometry x="944" y="2000" width="354" height="977" as="geometry" />
    </mxCell>
    <mxCell id="node84" parent="1" vertex="1" value="&lt;p style=&quot;margin:0px;margin-top:4px;text-align:center;&quot;&gt;&lt;b&gt;CraftingMenu&lt;/b&gt;&lt;/p&gt;&lt;hr size=&quot;1&quot;/&gt;" style="verticalAlign=top;align=left;overflow=fill;fontSize=14;fontFamily=Helvetica;html=1;rounded=0;shadow=0;comic=0;labelBackgroundColor=none;strokeWidth=1;">
      <mxGeometry x="1384" y="1722" width="193" height="38" as="geometry" />
    </mxCell>
    <mxCell id="node55" parent="1" vertex="1" value="&lt;p style=&quot;margin:0px;margin-top:4px;text-align:center;&quot;&gt;&lt;b&gt;Crop&lt;/b&gt;&lt;/p&gt;&lt;hr size=&quot;1&quot;/&gt;&lt;p style=&quot;margin:0 0 0 4px;line-height:1.6;&quot;&gt;- cropType: CropType&lt;/p&gt;" style="verticalAlign=top;align=left;overflow=fill;fontSize=14;fontFamily=Helvetica;html=1;rounded=0;shadow=0;comic=0;labelBackgroundColor=none;strokeWidth=1;">
      <mxGeometry x="5240" y="2489" width="216" height="82" as="geometry" />
    </mxCell>
    <mxCell id="node25" parent="1" vertex="1" value="&lt;p style=&quot;margin:0px;margin-top:4px;text-align:center;&quot;&gt;&lt;i&gt;&amp;lt;&amp;lt;enumeration&amp;gt;&amp;gt;&lt;/i&gt;&lt;br/&gt;&lt;b&gt;CropType&lt;/b&gt;&lt;/p&gt;&lt;hr size=&quot;1&quot;/&gt;&lt;p style=&quot;margin:0 0 0 4px;line-height:1.6;&quot;&gt;+ SWEET_PEA: &lt;br/&gt;+ CROCUS: &lt;br/&gt;+ PURPLE_MUSHROOM: &lt;br/&gt;+ CRYSTAL_FRUIT: &lt;br/&gt;+ WILD_PLUM: &lt;br/&gt;+ GREEN_BEAN: &lt;br/&gt;+ FIDDLEHEAD_FERN: &lt;br/&gt;+ SUMMER_SPANGLE: &lt;br/&gt;+ ANCIENT_FRUIT: &lt;br/&gt;+ AMARANTH: &lt;br/&gt;+ SUNFLOWER: &lt;br/&gt;+ BOK_CHOY: &lt;br/&gt;+ POWDERMELON: &lt;br/&gt;+ DAFFODIL: &lt;br/&gt;+ POPPY: &lt;br/&gt;+ RHUBARB: &lt;br/&gt;- seasons: List&amp;lt;Season&amp;gt;&lt;br/&gt;+ CAULIFLOWER: &lt;br/&gt;+ WINTER_ROOT: &lt;br/&gt;+ GARLIC: &lt;br/&gt;+ HOT_PEPPER: &lt;br/&gt;+ CARROT: &lt;br/&gt;+ BLUEBERRY: &lt;br/&gt;+ SALMONBERRY: &lt;br/&gt;+ MOREL: &lt;br/&gt;+ HOLLY: &lt;br/&gt;+ HOPS: &lt;br/&gt;- name: String&lt;br/&gt;- isEdible: boolean&lt;br/&gt;+ SPRING_ONION: &lt;br/&gt;- isForaging: boolean&lt;br/&gt;- energy: int&lt;br/&gt;+ RADISH: &lt;br/&gt;+ RED_MUSHROOM: &lt;br/&gt;+ STRAWBERRY: &lt;br/&gt;+ BLUE_JAZZ: &lt;br/&gt;+ POTATO: &lt;br/&gt;+ EGGPLANT: &lt;br/&gt;- regrowthTime: int&lt;br/&gt;+ TOMATO: &lt;br/&gt;+ BROCCOLI: &lt;br/&gt;+ MELON: &lt;br/&gt;+ WILD_HORSERADISH: &lt;br/&gt;+ YAM: &lt;br/&gt;+ CORN: &lt;br/&gt;+ PUMPKIN: &lt;br/&gt;+ COFFEE_BEAN: &lt;br/&gt;+ ARTICHOKE: &lt;br/&gt;- source: Source&lt;br/&gt;+ BEET: &lt;br/&gt;+ HAZELNUT: &lt;br/&gt;+ CRANBERRIES: &lt;br/&gt;+ TULIP: &lt;br/&gt;+ COMMON_MUSHROOM: &lt;br/&gt;- baseSellPrice: int&lt;br/&gt;+ PARSNIP: &lt;br/&gt;+ UNMILLED_RICE: &lt;br/&gt;+ SPICE_BERRY: &lt;br/&gt;+ BLACKBERRY: &lt;br/&gt;+ KALE: &lt;br/&gt;+ SNOW_YAM: &lt;br/&gt;+ SUMMER_SQUASH: &lt;br/&gt;+ GRAPE: &lt;br/&gt;- canBecomeGiant: boolean&lt;br/&gt;+ SWEET_GEM_BERRY: &lt;br/&gt;+ DANDELION: &lt;br/&gt;+ LEEK: &lt;br/&gt;+ RED_CABBAGE: &lt;br/&gt;+ FAIRY_ROSE: &lt;br/&gt;- harvestStages: List&amp;lt;Integer&amp;gt;&lt;br/&gt;+ STARFRUIT: &lt;br/&gt;+ CHANTERELLE: &lt;br/&gt;+ WHEAT: &lt;br/&gt;- oneTime: boolean&lt;/p&gt;&lt;hr size=&quot;1&quot;/&gt;&lt;p style=&quot;margin:0 0 0 4px;line-height:1.6;&quot;&gt;+ valueOf(String): CropType&lt;br/&gt;+ values(): CropType[]&lt;/p&gt;" style="verticalAlign=top;align=left;overflow=fill;fontSize=14;fontFamily=Helvetica;html=1;rounded=0;shadow=0;comic=0;labelBackgroundColor=none;strokeWidth=1;">
      <mxGeometry x="4110" y="4061" width="283" height="2327" as="geometry" />
    </mxCell>
    <mxCell id="node12" parent="1" vertex="1" value="&lt;p style=&quot;margin:0px;margin-top:4px;text-align:center;&quot;&gt;&lt;b&gt;DeluxBackPack&lt;/b&gt;&lt;/p&gt;&lt;hr size=&quot;1&quot;/&gt;&lt;p style=&quot;margin:0 0 0 4px;line-height:1.6;&quot;&gt;+ getInfinite(): Boolean&lt;/p&gt;" style="verticalAlign=top;align=left;overflow=fill;fontSize=14;fontFamily=Helvetica;html=1;rounded=0;shadow=0;comic=0;labelBackgroundColor=none;strokeWidth=1;">
      <mxGeometry x="6105" y="2783" width="222" height="82" as="geometry" />
    </mxCell>
    <mxCell id="node102" parent="1" vertex="1" value="&lt;p style=&quot;margin:0px;margin-top:4px;text-align:center;&quot;&gt;&lt;i&gt;&amp;lt;&amp;lt;enumeration&amp;gt;&amp;gt;&lt;/i&gt;&lt;br/&gt;&lt;b&gt;Dialog&lt;/b&gt;&lt;/p&gt;&lt;hr size=&quot;1&quot;/&gt;&lt;p style=&quot;margin:0 0 0 4px;line-height:1.6;&quot;&gt;- dialog: String&lt;br/&gt;- timeAndDate: TimeAndDate&lt;br/&gt;- weather: Weather&lt;br/&gt;- currentSeason: Season&lt;br/&gt;+ D1: &lt;br/&gt;- friendShipLevel: Integer&lt;/p&gt;&lt;hr size=&quot;1&quot;/&gt;&lt;p style=&quot;margin:0 0 0 4px;line-height:1.6;&quot;&gt;+ valueOf(String): Dialog&lt;br/&gt;+ getWeather(): Weather&lt;br/&gt;+ getCurrentSeason(): Season&lt;br/&gt;+ getTimeAndDate(): TimeAndDate&lt;br/&gt;+ getFriendShipLevel(): Integer&lt;br/&gt;+ getDialog(): String&lt;br/&gt;+ toString(): String&lt;br/&gt;+ values(): Dialog[]&lt;/p&gt;" style="verticalAlign=top;align=left;overflow=fill;fontSize=14;fontFamily=Helvetica;html=1;rounded=0;shadow=0;comic=0;labelBackgroundColor=none;strokeWidth=1;">
      <mxGeometry x="271" y="1379" width="313" height="467" as="geometry" />
    </mxCell>
    <mxCell id="node66" parent="1" vertex="1" value="&lt;p style=&quot;margin:0px;margin-top:4px;text-align:center;&quot;&gt;&lt;i&gt;&amp;lt;&amp;lt;enumeration&amp;gt;&amp;gt;&lt;/i&gt;&lt;br/&gt;&lt;b&gt;Farm&lt;/b&gt;&lt;/p&gt;&lt;hr size=&quot;1&quot;/&gt;&lt;p style=&quot;margin:0 0 0 4px;line-height:1.6;&quot;&gt;- tiles: List&amp;lt;Tile&amp;gt;&lt;/p&gt;&lt;hr size=&quot;1&quot;/&gt;&lt;p style=&quot;margin:0 0 0 4px;line-height:1.6;&quot;&gt;+ getTiles(): List&amp;lt;Tile&amp;gt;&lt;br/&gt;+ toString(): String&lt;br/&gt;+ values(): Farm[]&lt;br/&gt;+ valueOf(String): Farm&lt;/p&gt;" style="verticalAlign=top;align=left;overflow=fill;fontSize=14;fontFamily=Helvetica;html=1;rounded=0;shadow=0;comic=0;labelBackgroundColor=none;strokeWidth=1;">
      <mxGeometry x="4410" y="-18" width="223" height="197" as="geometry" />
    </mxCell>
    <mxCell id="node61" parent="1" vertex="1" value="&lt;p style=&quot;margin:0px;margin-top:4px;text-align:center;&quot;&gt;&lt;b&gt;FarmSelectionMenu&lt;/b&gt;&lt;/p&gt;&lt;hr size=&quot;1&quot;/&gt;" style="verticalAlign=top;align=left;overflow=fill;fontSize=14;fontFamily=Helvetica;html=1;rounded=0;shadow=0;comic=0;labelBackgroundColor=none;strokeWidth=1;">
      <mxGeometry x="1611" y="1904" width="253" height="38" as="geometry" />
    </mxCell>
    <mxCell id="node20" parent="1" vertex="1" value="&lt;p style=&quot;margin:0px;margin-top:4px;text-align:center;&quot;&gt;&lt;b&gt;FarmingMenu&lt;/b&gt;&lt;/p&gt;&lt;hr size=&quot;1&quot;/&gt;" style="verticalAlign=top;align=left;overflow=fill;fontSize=14;fontFamily=Helvetica;html=1;rounded=0;shadow=0;comic=0;labelBackgroundColor=none;strokeWidth=1;">
      <mxGeometry x="346" y="1281" width="193" height="38" as="geometry" />
    </mxCell>
    <mxCell id="node3" parent="1" vertex="1" value="&lt;p style=&quot;margin:0px;margin-top:4px;text-align:center;&quot;&gt;&lt;b&gt;Fish&lt;/b&gt;&lt;/p&gt;&lt;hr size=&quot;1&quot;/&gt;&lt;p style=&quot;margin:0 0 0 4px;line-height:1.6;&quot;&gt;- name: String&lt;br/&gt;- price: Integer&lt;br/&gt;- season: Season&lt;/p&gt;&lt;hr size=&quot;1&quot;/&gt;&lt;p style=&quot;margin:0 0 0 4px;line-height:1.6;&quot;&gt;+ getName(): String&lt;br/&gt;+ getPrice(): Integer&lt;br/&gt;+ getSeason(): Season&lt;br/&gt;+ setName(String): void&lt;br/&gt;+ setPrice(Integer): void&lt;br/&gt;+ setSeason(Season): void&lt;br/&gt;+ toString(): String&lt;/p&gt;" style="verticalAlign=top;align=left;overflow=fill;fontSize=14;fontFamily=Helvetica;html=1;rounded=0;shadow=0;comic=0;labelBackgroundColor=none;strokeWidth=1;">
      <mxGeometry x="7219" y="1939" width="247" height="347" as="geometry" />
    </mxCell>
    <mxCell id="node93" parent="1" vertex="1" value="&lt;p style=&quot;margin:0px;margin-top:4px;text-align:center;&quot;&gt;&lt;b&gt;FishShop&lt;/b&gt;&lt;/p&gt;&lt;hr size=&quot;1&quot;/&gt;" style="verticalAlign=top;align=left;overflow=fill;fontSize=14;fontFamily=Helvetica;html=1;rounded=0;shadow=0;comic=0;labelBackgroundColor=none;strokeWidth=1;">
      <mxGeometry x="2851" y="2385" width="151" height="38" as="geometry" />
    </mxCell>
    <mxCell id="node48" parent="1" vertex="1" value="&lt;p style=&quot;margin:0px;margin-top:4px;text-align:center;&quot;&gt;&lt;i&gt;&amp;lt;&amp;lt;enumeration&amp;gt;&amp;gt;&lt;/i&gt;&lt;br/&gt;&lt;b&gt;FishType&lt;/b&gt;&lt;/p&gt;&lt;hr size=&quot;1&quot;/&gt;&lt;p style=&quot;margin:0 0 0 4px;line-height:1.6;&quot;&gt;+ ANGLER: &lt;br/&gt;+ SALMON: &lt;br/&gt;+ TILAPIA: &lt;br/&gt;+ Legend: &lt;br/&gt;+ GLACIERFISH: &lt;br/&gt;- season: Season&lt;br/&gt;+ GHOSTFISH: &lt;br/&gt;+ PERCH: &lt;br/&gt;+ LIONFISH: &lt;br/&gt;+ TUNA: &lt;br/&gt;+ SARDINE: &lt;br/&gt;- price: Integer&lt;br/&gt;+ MIDNIGHT_CARP: &lt;br/&gt;+ CRIMSONFISH: &lt;br/&gt;+ SQUID: &lt;br/&gt;+ HERRING: &lt;br/&gt;- name: String&lt;br/&gt;+ BLUE_DISCUS: &lt;br/&gt;+ SUNFISH: &lt;br/&gt;+ SHAD: &lt;br/&gt;+ FLOUNDER: &lt;br/&gt;+ RAINBOW_TROUT: &lt;br/&gt;- isLegendary: Boolean&lt;br/&gt;+ DORADO: &lt;/p&gt;&lt;hr size=&quot;1&quot;/&gt;&lt;p style=&quot;margin:0 0 0 4px;line-height:1.6;&quot;&gt;+ getName(): String&lt;br/&gt;+ getPrice(): Integer&lt;br/&gt;+ getSeason(): Season&lt;br/&gt;+ getIsLegendary(): Boolean&lt;br/&gt;+ toString(): String&lt;br/&gt;+ values(): FishType[]&lt;br/&gt;+ valueOf(String): FishType&lt;/p&gt;" style="verticalAlign=top;align=left;overflow=fill;fontSize=14;fontFamily=Helvetica;html=1;rounded=0;shadow=0;comic=0;labelBackgroundColor=none;strokeWidth=1;">
      <mxGeometry x="3525" y="899" width="261" height="977" as="geometry" />
    </mxCell>
    <mxCell id="node56" parent="1" vertex="1" value="&lt;p style=&quot;margin:0px;margin-top:4px;text-align:center;&quot;&gt;&lt;i&gt;&amp;lt;&amp;lt;enumeration&amp;gt;&amp;gt;&lt;/i&gt;&lt;br/&gt;&lt;b&gt;FishingPole&lt;/b&gt;&lt;/p&gt;&lt;hr size=&quot;1&quot;/&gt;&lt;p style=&quot;margin:0 0 0 4px;line-height:1.6;&quot;&gt;+ COACHING: &lt;br/&gt;+ FIBER_GLASS: &lt;br/&gt;- energyCost: Integer&lt;br/&gt;+ IRIDIUM: &lt;br/&gt;+ BAMBO: &lt;br/&gt;- abilityLevel: Integer&lt;br/&gt;- price: Integer&lt;br/&gt;- qualityPercent: Double&lt;/p&gt;&lt;hr size=&quot;1&quot;/&gt;&lt;p style=&quot;margin:0 0 0 4px;line-height:1.6;&quot;&gt;+ setEnergyCost(Integer): void&lt;br/&gt;+ setPrice(Integer): void&lt;br/&gt;+ getPrice(): Integer&lt;br/&gt;+ getEnergyCost(): Integer&lt;br/&gt;+ values(): FishingPole[]&lt;br/&gt;+ setAbilityLevel(Integer): void&lt;br/&gt;+ getAbilityLevel(): Integer&lt;br/&gt;+ valueOf(String): FishingPole&lt;/p&gt;" style="verticalAlign=top;align=left;overflow=fill;fontSize=14;fontFamily=Helvetica;html=1;rounded=0;shadow=0;comic=0;labelBackgroundColor=none;strokeWidth=1;">
      <mxGeometry x="7385" y="2352" width="282" height="527" as="geometry" />
    </mxCell>
    <mxCell id="node82" parent="1" vertex="1" value="&lt;p style=&quot;margin:0px;margin-top:4px;text-align:center;&quot;&gt;&lt;b&gt;Food&lt;/b&gt;&lt;/p&gt;&lt;hr size=&quot;1&quot;/&gt;&lt;p style=&quot;margin:0 0 0 4px;line-height:1.6;&quot;&gt;- id: Integer&lt;br/&gt;- foodType: FoodType&lt;/p&gt;" style="verticalAlign=top;align=left;overflow=fill;fontSize=14;fontFamily=Helvetica;html=1;rounded=0;shadow=0;comic=0;labelBackgroundColor=none;strokeWidth=1;">
      <mxGeometry x="1798" y="2010" width="219" height="114" as="geometry" />
    </mxCell>
    <mxCell id="node86" parent="1" vertex="1" value="&lt;p style=&quot;margin:0px;margin-top:4px;text-align:center;&quot;&gt;&lt;i&gt;&amp;lt;&amp;lt;enumeration&amp;gt;&amp;gt;&lt;/i&gt;&lt;br/&gt;&lt;b&gt;FoodType&lt;/b&gt;&lt;/p&gt;&lt;hr size=&quot;1&quot;/&gt;&lt;p style=&quot;margin:0 0 0 4px;line-height:1.6;&quot;&gt;+ FRIED_EGG: &lt;br/&gt;- energy: Integer&lt;br/&gt;+ OMELET: &lt;br/&gt;+ SALAD: &lt;br/&gt;- source: Object&lt;br/&gt;+ BACKED_FISH: &lt;br/&gt;- ingredients: Map&amp;lt;Product, Integer&amp;gt;&lt;br/&gt;- sellPrice: Integer&lt;br/&gt;- buff: Buff&lt;br/&gt;- level: Integer[]&lt;/p&gt;&lt;hr size=&quot;1&quot;/&gt;&lt;p style=&quot;margin:0 0 0 4px;line-height:1.6;&quot;&gt;+ getIngredients(): Map&amp;lt;Product, Integer&amp;gt;&lt;br/&gt;+ getEnergy(): Integer&lt;br/&gt;+ getSellPrice(): Integer&lt;br/&gt;+ getBuff(): Buff&lt;br/&gt;+ getSource(): Object&lt;br/&gt;+ getLevel(): Integer[]&lt;br/&gt;+ toString(): String&lt;br/&gt;+ valueOf(String): FoodType&lt;br/&gt;+ values(): FoodType[]&lt;/p&gt;" style="verticalAlign=top;align=left;overflow=fill;fontSize=14;fontFamily=Helvetica;html=1;rounded=0;shadow=0;comic=0;labelBackgroundColor=none;strokeWidth=1;">
      <mxGeometry x="1364" y="2030" width="370" height="617" as="geometry" />
    </mxCell>
    <mxCell id="node53" parent="1" vertex="1" value="&lt;p style=&quot;margin:0px;margin-top:4px;text-align:center;&quot;&gt;&lt;b&gt;Fridge&lt;/b&gt;&lt;/p&gt;&lt;hr size=&quot;1&quot;/&gt;" style="verticalAlign=top;align=left;overflow=fill;fontSize=14;fontFamily=Helvetica;html=1;rounded=0;shadow=0;comic=0;labelBackgroundColor=none;strokeWidth=1;">
      <mxGeometry x="867" y="3039" width="123" height="38" as="geometry" />
    </mxCell>
    <mxCell id="node49" parent="1" vertex="1" value="&lt;p style=&quot;margin:0px;margin-top:4px;text-align:center;&quot;&gt;&lt;b&gt;FriendShipMenu&lt;/b&gt;&lt;/p&gt;&lt;hr size=&quot;1&quot;/&gt;" style="verticalAlign=top;align=left;overflow=fill;fontSize=14;fontFamily=Helvetica;html=1;rounded=0;shadow=0;comic=0;labelBackgroundColor=none;strokeWidth=1;">
      <mxGeometry x="1198" y="1196" width="219" height="38" as="geometry" />
    </mxCell>
    <mxCell id="node24" parent="1" vertex="1" value="&lt;p style=&quot;margin:0px;margin-top:4px;text-align:center;&quot;&gt;&lt;b&gt;Friendship&lt;/b&gt;&lt;/p&gt;&lt;hr size=&quot;1&quot;/&gt;&lt;p style=&quot;margin:0 0 0 4px;line-height:1.6;&quot;&gt;- id: Integer&lt;br/&gt;- gifts: List&amp;lt;Gift&amp;gt;&lt;br/&gt;- friendShipLevel: Integer&lt;br/&gt;- xp: Integer&lt;br/&gt;- firstPlayer: Player&lt;br/&gt;- secondPlayer: Player&lt;/p&gt;&lt;hr size=&quot;1&quot;/&gt;&lt;p style=&quot;margin:0 0 0 4px;line-height:1.6;&quot;&gt;+ setFirstPlayer(Player): void&lt;br/&gt;+ getId(): Integer&lt;br/&gt;+ getFirstPlayer(): Player&lt;br/&gt;+ getSecondPlayer(): Player&lt;br/&gt;+ getGifts(): List&amp;lt;Gift&amp;gt;&lt;br/&gt;+ getFriendShipLevel(): Integer&lt;br/&gt;+ getXp(): Integer&lt;br/&gt;+ setId(Integer): void&lt;br/&gt;+ setSecondPlayer(Player): void&lt;br/&gt;+ setXp(Integer): void&lt;br/&gt;+ setGifts(List&amp;lt;Gift&amp;gt;): void&lt;br/&gt;+ setFriendShipLevel(Integer): void&lt;br/&gt;+ toString(): String&lt;/p&gt;" style="verticalAlign=top;align=left;overflow=fill;fontSize=14;fontFamily=Helvetica;html=1;rounded=0;shadow=0;comic=0;labelBackgroundColor=none;strokeWidth=1;">
      <mxGeometry x="5514" y="2968" width="310" height="617" as="geometry" />
    </mxCell>
    <mxCell id="node44" parent="1" vertex="1" value="&lt;p style=&quot;margin:0px;margin-top:4px;text-align:center;&quot;&gt;&lt;b&gt;Fruit&lt;/b&gt;&lt;/p&gt;&lt;hr size=&quot;1&quot;/&gt;&lt;p style=&quot;margin:0 0 0 4px;line-height:1.6;&quot;&gt;~ fruitType: FruitType&lt;/p&gt;&lt;hr size=&quot;1&quot;/&gt;&lt;p style=&quot;margin:0 0 0 4px;line-height:1.6;&quot;&gt;+ getFruitType(): FruitType&lt;br/&gt;+ setFruitType(FruitType): void&lt;br/&gt;+ toString(): String&lt;/p&gt;" style="verticalAlign=top;align=left;overflow=fill;fontSize=14;fontFamily=Helvetica;html=1;rounded=0;shadow=0;comic=0;labelBackgroundColor=none;strokeWidth=1;">
      <mxGeometry x="5763" y="2626" width="281" height="167" as="geometry" />
    </mxCell>
    <mxCell id="node18" parent="1" vertex="1" value="&lt;p style=&quot;margin:0px;margin-top:4px;text-align:center;&quot;&gt;&lt;i&gt;&amp;lt;&amp;lt;enumeration&amp;gt;&amp;gt;&lt;/i&gt;&lt;br/&gt;&lt;b&gt;FruitType&lt;/b&gt;&lt;/p&gt;&lt;hr size=&quot;1&quot;/&gt;&lt;p style=&quot;margin:0 0 0 4px;line-height:1.6;&quot;&gt;+ OAK_RESIN: &lt;br/&gt;- Name: String&lt;br/&gt;+ BANANA: &lt;br/&gt;- baseSellPrice: Integer&lt;br/&gt;+ SAP: &lt;br/&gt;+ ORANGE: &lt;br/&gt;- isEdible: Boolean&lt;br/&gt;- fruitEnergy: Integer&lt;br/&gt;+ CHERRY: &lt;br/&gt;+ APRICOT: &lt;br/&gt;+ COMMON_MUSHROOM: &lt;br/&gt;+ MANGO: &lt;br/&gt;+ APPLE: &lt;br/&gt;- season: Season&lt;br/&gt;+ POMEGRANATE: &lt;br/&gt;+ MYSTIC_SYRUP: &lt;br/&gt;+ PEACH: &lt;br/&gt;+ MAPLE_SYRUP: &lt;br/&gt;+ PINE_TAR: &lt;br/&gt;- treeType: TreeType&lt;/p&gt;&lt;hr size=&quot;1&quot;/&gt;&lt;p style=&quot;margin:0 0 0 4px;line-height:1.6;&quot;&gt;+ getTreeType(): TreeType&lt;br/&gt;+ getName(): String&lt;br/&gt;+ getBaseSellPrice(): Integer&lt;br/&gt;+ getIsEdible(): Boolean&lt;br/&gt;+ getFruitEnergy(): Integer&lt;br/&gt;+ getSeason(): Season&lt;br/&gt;+ toString(): String&lt;br/&gt;+ values(): FruitType[]&lt;br/&gt;+ valueOf(String): FruitType&lt;/p&gt;" style="verticalAlign=top;align=left;overflow=fill;fontSize=14;fontFamily=Helvetica;html=1;rounded=0;shadow=0;comic=0;labelBackgroundColor=none;strokeWidth=1;">
      <mxGeometry x="5988" y="1123" width="261" height="917" as="geometry" />
    </mxCell>
    <mxCell id="node22" parent="1" vertex="1" value="&lt;p style=&quot;margin:0px;margin-top:4px;text-align:center;&quot;&gt;&lt;b&gt;Game&lt;/b&gt;&lt;/p&gt;&lt;hr size=&quot;1&quot;/&gt;&lt;p style=&quot;margin:0 0 0 4px;line-height:1.6;&quot;&gt;- npcs: List&amp;lt;NPC&amp;gt;&lt;br/&gt;- players: List&amp;lt;Player&amp;gt;&lt;br/&gt;- timeAndDate: TimeAndDate&lt;br/&gt;- village: Village&lt;br/&gt;- friendships: List&amp;lt;Friendship&amp;gt;&lt;/p&gt;&lt;hr size=&quot;1&quot;/&gt;&lt;p style=&quot;margin:0 0 0 4px;line-height:1.6;&quot;&gt;+ getNpcs(): List&amp;lt;NPC&amp;gt;&lt;br/&gt;+ getVillage(): Village&lt;br/&gt;+ getPlayers(): List&amp;lt;Player&amp;gt;&lt;br/&gt;+ getFriendships(): List&amp;lt;Friendship&amp;gt;&lt;br/&gt;+ getTimeAndDate(): TimeAndDate&lt;br/&gt;+ setVillage(Village): void&lt;br/&gt;+ setPlayers(List&amp;lt;Player&amp;gt;): void&lt;br/&gt;+ setNpcs(List&amp;lt;NPC&amp;gt;): void&lt;br/&gt;+ setFriendships(List&amp;lt;Friendship&amp;gt;): void&lt;br/&gt;+ setTimeAndDate(TimeAndDate): void&lt;br/&gt;+ toString(): String&lt;/p&gt;" style="verticalAlign=top;align=left;overflow=fill;fontSize=14;fontFamily=Helvetica;html=1;rounded=0;shadow=0;comic=0;labelBackgroundColor=none;strokeWidth=1;">
      <mxGeometry x="5258" y="1584" width="352" height="527" as="geometry" />
    </mxCell>
    <mxCell id="node32" parent="1" vertex="1" value="&lt;p style=&quot;margin:0px;margin-top:4px;text-align:center;&quot;&gt;&lt;b&gt;GameMenu&lt;/b&gt;&lt;/p&gt;&lt;hr size=&quot;1&quot;/&gt;" style="verticalAlign=top;align=left;overflow=fill;fontSize=14;fontFamily=Helvetica;html=1;rounded=0;shadow=0;comic=0;labelBackgroundColor=none;strokeWidth=1;">
      <mxGeometry x="414" y="1170" width="172" height="38" as="geometry" />
    </mxCell>
    <mxCell id="node37" parent="1" vertex="1" value="&lt;p style=&quot;margin:0px;margin-top:4px;text-align:center;&quot;&gt;&lt;b&gt;GameMenuController&lt;/b&gt;&lt;/p&gt;&lt;hr size=&quot;1&quot;/&gt;" style="verticalAlign=top;align=left;overflow=fill;fontSize=14;fontFamily=Helvetica;html=1;rounded=0;shadow=0;comic=0;labelBackgroundColor=none;strokeWidth=1;">
      <mxGeometry x="6892" y="2148" width="266" height="38" as="geometry" />
    </mxCell>
    <mxCell id="node101" parent="1" vertex="1" value="&lt;p style=&quot;margin:0px;margin-top:4px;text-align:center;&quot;&gt;&lt;b&gt;Gift&lt;/b&gt;&lt;/p&gt;&lt;hr size=&quot;1&quot;/&gt;&lt;p style=&quot;margin:0 0 0 4px;line-height:1.6;&quot;&gt;- rate: Integer&lt;br/&gt;- gifting: Actor&lt;br/&gt;- gift: Salable&lt;br/&gt;- gifter: Actor&lt;/p&gt;&lt;hr size=&quot;1&quot;/&gt;&lt;p style=&quot;margin:0 0 0 4px;line-height:1.6;&quot;&gt;+ getGift(): Salable&lt;br/&gt;+ getGifter(): Actor&lt;br/&gt;+ getGifting(): Actor&lt;br/&gt;+ getRate(): Integer&lt;br/&gt;+ setGift(Salable): void&lt;br/&gt;+ setGifter(Actor): void&lt;br/&gt;+ setGifting(Actor): void&lt;br/&gt;+ setRate(Integer): void&lt;br/&gt;+ toString(): String&lt;/p&gt;" style="verticalAlign=top;align=left;overflow=fill;fontSize=14;fontFamily=Helvetica;html=1;rounded=0;shadow=0;comic=0;labelBackgroundColor=none;strokeWidth=1;">
      <mxGeometry x="2836" y="1449" width="230" height="437" as="geometry" />
    </mxCell>
    <mxCell id="node52" parent="1" vertex="1" value="&lt;p style=&quot;margin:0px;margin-top:4px;text-align:center;&quot;&gt;&lt;b&gt;GreenHouse&lt;/b&gt;&lt;/p&gt;&lt;hr size=&quot;1&quot;/&gt;" style="verticalAlign=top;align=left;overflow=fill;fontSize=14;fontFamily=Helvetica;html=1;rounded=0;shadow=0;comic=0;labelBackgroundColor=none;strokeWidth=1;">
      <mxGeometry x="2293" y="2736" width="182" height="38" as="geometry" />
    </mxCell>
    <mxCell id="node60" parent="1" vertex="1" value="&lt;p style=&quot;margin:0px;margin-top:4px;text-align:center;&quot;&gt;&lt;b&gt;HarvestAbleProduct&lt;/b&gt;&lt;/p&gt;&lt;hr size=&quot;1&quot;/&gt;&lt;p style=&quot;margin:0 0 0 4px;line-height:1.6;&quot;&gt;- basePrice: Integer&lt;br/&gt;- containingEnergy: Integer&lt;br/&gt;- timeDiffBetweenHarvests: Integer&lt;br/&gt;- isEdible: Boolean&lt;br/&gt;- isEnormosable: Boolean&lt;br/&gt;- isMultiHarvestable: Boolean&lt;br/&gt;- id: Integer&lt;br/&gt;- seasonList: List&amp;lt;Season&amp;gt;&lt;br/&gt;- name: String&lt;br/&gt;- source: Seed&lt;br/&gt;- isFarming: Boolean&lt;br/&gt;- harvests: List&amp;lt;Integer&amp;gt;&lt;/p&gt;&lt;hr size=&quot;1&quot;/&gt;&lt;p style=&quot;margin:0 0 0 4px;line-height:1.6;&quot;&gt;+ getIsMultiHarvestable(): Boolean&lt;br/&gt;+ getId(): Integer&lt;br/&gt;+ getName(): String&lt;br/&gt;+ getSource(): Seed&lt;br/&gt;+ getIsFarming(): Boolean&lt;br/&gt;+ setBasePrice(Integer): void&lt;br/&gt;+ getSeasonList(): List&amp;lt;Season&amp;gt;&lt;br/&gt;+ getIsEnormosable(): Boolean&lt;br/&gt;+ setSource(Seed): void&lt;br/&gt;+ setContainingEnergy(Integer): void&lt;br/&gt;+ setIsEnormosable(Boolean): void&lt;br/&gt;+ setId(Integer): void&lt;br/&gt;+ setIsEdible(Boolean): void&lt;br/&gt;+ setIsFarming(Boolean): void&lt;br/&gt;+ getHarvests(): List&amp;lt;Integer&amp;gt;&lt;br/&gt;+ getTimeDiffBetweenHarvests(): Integer&lt;br/&gt;+ setTimeDiffBetweenHarvests(Integer): void&lt;br/&gt;+ getBasePrice(): Integer&lt;br/&gt;+ setIsMultiHarvestable(Boolean): void&lt;br/&gt;+ getIsEdible(): Boolean&lt;br/&gt;+ setName(String): void&lt;br/&gt;+ setHarvests(List&amp;lt;Integer&amp;gt;): void&lt;br/&gt;+ setSeasonList(List&amp;lt;Season&amp;gt;): void&lt;br/&gt;+ getContainingEnergy(): Integer&lt;br/&gt;+ toString(): String&lt;/p&gt;" style="verticalAlign=top;align=left;overflow=fill;fontSize=14;fontFamily=Helvetica;html=1;rounded=0;shadow=0;comic=0;labelBackgroundColor=none;strokeWidth=1;">
      <mxGeometry x="4491" y="2858" width="387" height="1157" as="geometry" />
    </mxCell>
    <mxCell id="node81" parent="1" vertex="1" value="&lt;p style=&quot;margin:0px;margin-top:4px;text-align:center;&quot;&gt;&lt;b&gt;Hay&lt;/b&gt;&lt;/p&gt;&lt;hr size=&quot;1&quot;/&gt;" style="verticalAlign=top;align=left;overflow=fill;fontSize=14;fontFamily=Helvetica;html=1;rounded=0;shadow=0;comic=0;labelBackgroundColor=none;strokeWidth=1;">
      <mxGeometry x="3845" y="3245" width="100" height="38" as="geometry" />
    </mxCell>
    <mxCell id="node94" parent="1" vertex="1" value="&lt;p style=&quot;margin:0px;margin-top:4px;text-align:center;&quot;&gt;&lt;i&gt;&amp;lt;&amp;lt;enumeration&amp;gt;&amp;gt;&lt;/i&gt;&lt;br/&gt;&lt;b&gt;Hoe&lt;/b&gt;&lt;/p&gt;&lt;hr size=&quot;1&quot;/&gt;&lt;p style=&quot;margin:0 0 0 4px;line-height:1.6;&quot;&gt;+ GOLD: &lt;br/&gt;+ CUPPER: &lt;br/&gt;- level: int&lt;br/&gt;+ NORMAL: &lt;br/&gt;+ IRIDIUM: &lt;br/&gt;+ IRON: &lt;br/&gt;- energyCost: int&lt;/p&gt;&lt;hr size=&quot;1&quot;/&gt;&lt;p style=&quot;margin:0 0 0 4px;line-height:1.6;&quot;&gt;+ getEnergyCost(): int&lt;br/&gt;+ valueOf(String): Hoe&lt;br/&gt;+ values(): Hoe[]&lt;br/&gt;+ getLevel(): int&lt;/p&gt;" style="verticalAlign=top;align=left;overflow=fill;fontSize=14;fontFamily=Helvetica;html=1;rounded=0;shadow=0;comic=0;labelBackgroundColor=none;strokeWidth=1;">
      <mxGeometry x="6113" y="2281" width="217" height="377" as="geometry" />
    </mxCell>
    <mxCell id="node42" parent="1" vertex="1" value="&lt;p style=&quot;margin:0px;margin-top:4px;text-align:center;&quot;&gt;&lt;b&gt;House&lt;/b&gt;&lt;/p&gt;&lt;hr size=&quot;1&quot;/&gt;" style="verticalAlign=top;align=left;overflow=fill;fontSize=14;fontFamily=Helvetica;html=1;rounded=0;shadow=0;comic=0;labelBackgroundColor=none;strokeWidth=1;">
      <mxGeometry x="936" y="3218" width="124" height="38" as="geometry" />
    </mxCell>
    <mxCell id="node62" parent="1" vertex="1" value="&lt;p style=&quot;margin:0px;margin-top:4px;text-align:center;&quot;&gt;&lt;b&gt;HusbandryMenu&lt;/b&gt;&lt;/p&gt;&lt;hr size=&quot;1&quot;/&gt;" style="verticalAlign=top;align=left;overflow=fill;fontSize=14;fontFamily=Helvetica;html=1;rounded=0;shadow=0;comic=0;labelBackgroundColor=none;strokeWidth=1;">
      <mxGeometry x="2552" y="2773" width="219" height="38" as="geometry" />
    </mxCell>
    <mxCell id="node40" parent="1" vertex="1" value="&lt;p style=&quot;margin:0px;margin-top:4px;text-align:center;&quot;&gt;&lt;b&gt;InvalidInputException&lt;/b&gt;&lt;/p&gt;&lt;hr size=&quot;1&quot;/&gt;" style="verticalAlign=top;align=left;overflow=fill;fontSize=14;fontFamily=Helvetica;html=1;rounded=0;shadow=0;comic=0;labelBackgroundColor=none;strokeWidth=1;">
      <mxGeometry x="4535" y="4075" width="266" height="38" as="geometry" />
    </mxCell>
    <mxCell id="node2" parent="1" vertex="1" value="&lt;p style=&quot;margin:0px;margin-top:4px;text-align:center;&quot;&gt;&lt;b&gt;JojaMart&lt;/b&gt;&lt;/p&gt;&lt;hr size=&quot;1&quot;/&gt;" style="verticalAlign=top;align=left;overflow=fill;fontSize=14;fontFamily=Helvetica;html=1;rounded=0;shadow=0;comic=0;labelBackgroundColor=none;strokeWidth=1;">
      <mxGeometry x="2932" y="2145" width="145" height="38" as="geometry" />
    </mxCell>
    <mxCell id="node59" parent="1" vertex="1" value="&lt;p style=&quot;margin:0px;margin-top:4px;text-align:center;&quot;&gt;&lt;b&gt;Lake&lt;/b&gt;&lt;/p&gt;&lt;hr size=&quot;1&quot;/&gt;" style="verticalAlign=top;align=left;overflow=fill;fontSize=14;fontFamily=Helvetica;html=1;rounded=0;shadow=0;comic=0;labelBackgroundColor=none;strokeWidth=1;">
      <mxGeometry x="1372" y="2874" width="108" height="38" as="geometry" />
    </mxCell>
    <mxCell id="node9" parent="1" vertex="1" value="&lt;p style=&quot;margin:0px;margin-top:4px;text-align:center;&quot;&gt;&lt;b&gt;LoginMenuController&lt;/b&gt;&lt;/p&gt;&lt;hr size=&quot;1&quot;/&gt;" style="verticalAlign=top;align=left;overflow=fill;fontSize=14;fontFamily=Helvetica;html=1;rounded=0;shadow=0;comic=0;labelBackgroundColor=none;strokeWidth=1;">
      <mxGeometry x="4538" y="1063" width="263" height="38" as="geometry" />
    </mxCell>
    <mxCell id="node85" parent="1" vertex="1" value="&lt;p style=&quot;margin:0px;margin-top:4px;text-align:center;&quot;&gt;&lt;b&gt;LoginView&lt;/b&gt;&lt;/p&gt;&lt;hr size=&quot;1&quot;/&gt;" style="verticalAlign=top;align=left;overflow=fill;fontSize=14;fontFamily=Helvetica;html=1;rounded=0;shadow=0;comic=0;labelBackgroundColor=none;strokeWidth=1;">
      <mxGeometry x="1382" y="1502" width="162" height="38" as="geometry" />
    </mxCell>
    <mxCell id="node75" parent="1" vertex="1" value="&lt;p style=&quot;margin:0px;margin-top:4px;text-align:center;&quot;&gt;&lt;b&gt;MadeProduct&lt;/b&gt;&lt;/p&gt;&lt;hr size=&quot;1&quot;/&gt;&lt;p style=&quot;margin:0 0 0 4px;line-height:1.6;&quot;&gt;- madeProducts: MadeProductType&lt;br/&gt;- price: Integer&lt;/p&gt;&lt;hr size=&quot;1&quot;/&gt;&lt;p style=&quot;margin:0 0 0 4px;line-height:1.6;&quot;&gt;+ setMadeProducts(MadeProductType): void&lt;br/&gt;+ setPrice(Integer): void&lt;/p&gt;" style="verticalAlign=top;align=left;overflow=fill;fontSize=14;fontFamily=Helvetica;html=1;rounded=0;shadow=0;comic=0;labelBackgroundColor=none;strokeWidth=1;">
      <mxGeometry x="2473" y="1957" width="387" height="167" as="geometry" />
    </mxCell>
    <mxCell id="node92" parent="1" vertex="1" value="&lt;p style=&quot;margin:0px;margin-top:4px;text-align:center;&quot;&gt;&lt;i&gt;&amp;lt;&amp;lt;enumeration&amp;gt;&amp;gt;&lt;/i&gt;&lt;br/&gt;&lt;b&gt;MadeProductType&lt;/b&gt;&lt;/p&gt;&lt;hr size=&quot;1&quot;/&gt;&lt;p style=&quot;margin:0 0 0 4px;line-height:1.6;&quot;&gt;- isCoalNeeded: boolean&lt;br/&gt;+ WINE: &lt;br/&gt;+ SMOKED_FISH: &lt;br/&gt;- energy: Integer&lt;br/&gt;+ COAL: &lt;br/&gt;+ JUICE: &lt;br/&gt;+ DRIED_MUSHROOMS: &lt;br/&gt;+ DRIED_FRUIT: &lt;br/&gt;- sellPrice: Integer&lt;br/&gt;+ COFFE: &lt;br/&gt;+ MAYONNAISE: &lt;br/&gt;+ PALE_ALE: &lt;br/&gt;+ BEER: &lt;br/&gt;+ MEAD: &lt;br/&gt;+ JELLY: &lt;br/&gt;+ DINOSAUR_MAYONNAISE: &lt;br/&gt;- isEdible: boolean&lt;br/&gt;- description: String&lt;br/&gt;- processingTime: TimeAndDate&lt;br/&gt;+ TRUFFLE_OIL: &lt;br/&gt;- ingredients: Map&amp;lt;Product, Integer&amp;gt;&lt;br/&gt;+ GOAT_CHEESE: &lt;br/&gt;+ CLOTH: &lt;br/&gt;+ DUCK_MAYONNAISE: &lt;br/&gt;+ PICKLES: &lt;br/&gt;+ CHEESE: &lt;br/&gt;+ OIL: &lt;br/&gt;+ VINEGAR: &lt;br/&gt;+ any_metal_bar: &lt;br/&gt;+ RAISINS: &lt;br/&gt;+ HONEY: &lt;/p&gt;&lt;hr size=&quot;1&quot;/&gt;&lt;p style=&quot;margin:0 0 0 4px;line-height:1.6;&quot;&gt;+ getDescription(): String&lt;br/&gt;+ getEnergy(): Integer&lt;br/&gt;+ getProcessingTime(): TimeAndDate&lt;br/&gt;+ getIngredients(): Map&amp;lt;Product, Integer&amp;gt;&lt;br/&gt;+ getSellPrice(): Integer&lt;br/&gt;+ isEdible(): boolean&lt;br/&gt;+ isCoalNeeded(): boolean&lt;br/&gt;+ toString(): String&lt;br/&gt;+ isIngredientsValid(Product, Integer, boolean): boolean&lt;br/&gt;+ valueOf(String): MadeProductType&lt;br/&gt;- calcNextMorning(): TimeAndDate?&lt;br/&gt;+ calcEnergy(Product): Integer&lt;br/&gt;+ calcPrice(Product): Integer&lt;br/&gt;+ values(): MadeProductType[]&lt;br/&gt;+ calcProccesingTime(Product): TimeAndDate&lt;/p&gt;" style="verticalAlign=top;align=left;overflow=fill;fontSize=14;fontFamily=Helvetica;html=1;rounded=0;shadow=0;comic=0;labelBackgroundColor=none;strokeWidth=1;">
      <mxGeometry x="4384" y="1371" width="475" height="1427" as="geometry" />
    </mxCell>
    <mxCell id="node51" parent="1" vertex="1" value="&lt;p style=&quot;margin:0px;margin-top:4px;text-align:center;&quot;&gt;&lt;b&gt;Main&lt;/b&gt;&lt;/p&gt;&lt;hr size=&quot;1&quot;/&gt;&lt;p style=&quot;margin:0 0 0 4px;line-height:1.6;&quot;&gt;+ main(String[]): void&lt;/p&gt;" style="verticalAlign=top;align=left;overflow=fill;fontSize=14;fontFamily=Helvetica;html=1;rounded=0;shadow=0;comic=0;labelBackgroundColor=none;strokeWidth=1;">
      <mxGeometry x="4930" y="1004" width="210" height="82" as="geometry" />
    </mxCell>
    <mxCell id="node87" parent="1" vertex="1" value="&lt;p style=&quot;margin:0px;margin-top:4px;text-align:center;&quot;&gt;&lt;b&gt;MainMenu&lt;/b&gt;&lt;/p&gt;&lt;hr size=&quot;1&quot;/&gt;" style="verticalAlign=top;align=left;overflow=fill;fontSize=14;fontFamily=Helvetica;html=1;rounded=0;shadow=0;comic=0;labelBackgroundColor=none;strokeWidth=1;">
      <mxGeometry x="644" y="1287" width="163" height="38" as="geometry" />
    </mxCell>
    <mxCell id="node19" parent="1" vertex="1" value="&lt;p style=&quot;margin:0px;margin-top:4px;text-align:center;&quot;&gt;&lt;b&gt;MainMenuController&lt;/b&gt;&lt;/p&gt;&lt;hr size=&quot;1&quot;/&gt;" style="verticalAlign=top;align=left;overflow=fill;fontSize=14;fontFamily=Helvetica;html=1;rounded=0;shadow=0;comic=0;labelBackgroundColor=none;strokeWidth=1;">
      <mxGeometry x="5670" y="2061" width="257" height="38" as="geometry" />
    </mxCell>
    <mxCell id="node31" parent="1" vertex="1" value="&lt;p style=&quot;margin:0px;margin-top:4px;text-align:center;&quot;&gt;&lt;b&gt;MarnieShop&lt;/b&gt;&lt;/p&gt;&lt;hr size=&quot;1&quot;/&gt;" style="verticalAlign=top;align=left;overflow=fill;fontSize=14;fontFamily=Helvetica;html=1;rounded=0;shadow=0;comic=0;labelBackgroundColor=none;strokeWidth=1;">
      <mxGeometry x="4138" y="3327" width="177" height="38" as="geometry" />
    </mxCell>
    <mxCell id="node14" parent="1" vertex="1" value="&lt;p style=&quot;margin:0px;margin-top:4px;text-align:center;&quot;&gt;&lt;i&gt;&amp;lt;&amp;lt;enumeration&amp;gt;&amp;gt;&lt;/i&gt;&lt;br/&gt;&lt;b&gt;MarnieShopAnimal&lt;/b&gt;&lt;/p&gt;&lt;hr size=&quot;1&quot;/&gt;&lt;p style=&quot;margin:0 0 0 4px;line-height:1.6;&quot;&gt;+ values(): MarnieShopAnimal[]&lt;br/&gt;+ valueOf(String): MarnieShopAnimal&lt;/p&gt;" style="verticalAlign=top;align=left;overflow=fill;fontSize=14;fontFamily=Helvetica;html=1;rounded=0;shadow=0;comic=0;labelBackgroundColor=none;strokeWidth=1;">
      <mxGeometry x="6992" y="2865" width="328" height="133" as="geometry" />
    </mxCell>
    <mxCell id="node46" parent="1" vertex="1" value="&lt;p style=&quot;margin:0px;margin-top:4px;text-align:center;&quot;&gt;&lt;i&gt;&amp;lt;&amp;lt;enumeration&amp;gt;&amp;gt;&lt;/i&gt;&lt;br/&gt;&lt;b&gt;MarnieShopAnimalRequierment&lt;/b&gt;&lt;/p&gt;&lt;hr size=&quot;1&quot;/&gt;&lt;p style=&quot;margin:0 0 0 4px;line-height:1.6;&quot;&gt;+ values(): MarnieShopAnimalRequierment[]&lt;br/&gt;+ valueOf(String): MarnieShopAnimalRequierment&lt;/p&gt;" style="verticalAlign=top;align=left;overflow=fill;fontSize=14;fontFamily=Helvetica;html=1;rounded=0;shadow=0;comic=0;labelBackgroundColor=none;strokeWidth=1;">
      <mxGeometry x="3318" y="3975" width="424" height="133" as="geometry" />
    </mxCell>
    <mxCell id="node63" parent="1" vertex="1" value="&lt;p style=&quot;margin:0px;margin-top:4px;text-align:center;&quot;&gt;&lt;b&gt;Marry&lt;/b&gt;&lt;/p&gt;&lt;hr size=&quot;1&quot;/&gt;&lt;p style=&quot;margin:0 0 0 4px;line-height:1.6;&quot;&gt;- request: TimeAndDate&lt;br/&gt;- id: Integer&lt;br/&gt;- accepted: Boolean&lt;br/&gt;- husband: Player&lt;br/&gt;- wife: Player&lt;/p&gt;&lt;hr size=&quot;1&quot;/&gt;&lt;p style=&quot;margin:0 0 0 4px;line-height:1.6;&quot;&gt;+ getRequest(): TimeAndDate&lt;br/&gt;+ getId(): Integer&lt;br/&gt;+ getHusband(): Player&lt;br/&gt;+ getWife(): Player&lt;br/&gt;+ getAccepted(): Boolean&lt;br/&gt;+ setId(Integer): void&lt;br/&gt;+ setHusband(Player): void&lt;br/&gt;+ setWife(Player): void&lt;br/&gt;+ setRequest(TimeAndDate): void&lt;br/&gt;+ setAccepted(Boolean): void&lt;br/&gt;+ toString(): String&lt;/p&gt;" style="verticalAlign=top;align=left;overflow=fill;fontSize=14;fontFamily=Helvetica;html=1;rounded=0;shadow=0;comic=0;labelBackgroundColor=none;strokeWidth=1;">
      <mxGeometry x="4621" y="347" width="301" height="527" as="geometry" />
    </mxCell>
    <mxCell id="node80" parent="1" vertex="1" value="&lt;p style=&quot;margin:0px;margin-top:4px;text-align:center;&quot;&gt;&lt;b&gt;Menu&lt;/b&gt;&lt;/p&gt;&lt;hr size=&quot;1&quot;/&gt;" style="verticalAlign=top;align=left;overflow=fill;fontSize=14;fontFamily=Helvetica;html=1;rounded=0;shadow=0;comic=0;labelBackgroundColor=none;strokeWidth=1;">
      <mxGeometry x="595" y="1071" width="117" height="38" as="geometry" />
    </mxCell>
    <mxCell id="node73" parent="1" vertex="1" value="&lt;p style=&quot;margin:0px;margin-top:4px;text-align:center;&quot;&gt;&lt;b&gt;MenuController&lt;/b&gt;&lt;/p&gt;&lt;hr size=&quot;1&quot;/&gt;" style="verticalAlign=top;align=left;overflow=fill;fontSize=14;fontFamily=Helvetica;html=1;rounded=0;shadow=0;comic=0;labelBackgroundColor=none;strokeWidth=1;">
      <mxGeometry x="5715" y="1852" width="211" height="38" as="geometry" />
    </mxCell>
    <mxCell id="node97" parent="1" vertex="1" value="&lt;p style=&quot;margin:0px;margin-top:4px;text-align:center;&quot;&gt;&lt;i&gt;&amp;lt;&amp;lt;enumeration&amp;gt;&amp;gt;&lt;/i&gt;&lt;br/&gt;&lt;b&gt;MilkPail&lt;/b&gt;&lt;/p&gt;&lt;hr size=&quot;1&quot;/&gt;&lt;p style=&quot;margin:0 0 0 4px;line-height:1.6;&quot;&gt;- energyUse: Integer&lt;br/&gt;- price: Integer&lt;br/&gt;+ MILK_PAIL: &lt;/p&gt;&lt;hr size=&quot;1&quot;/&gt;&lt;p style=&quot;margin:0 0 0 4px;line-height:1.6;&quot;&gt;+ values(): MilkPail[]&lt;br/&gt;+ getPrice(): Integer&lt;br/&gt;+ valueOf(String): MilkPail&lt;br/&gt;+ getEnergyUse(): Integer&lt;/p&gt;" style="verticalAlign=top;align=left;overflow=fill;fontSize=14;fontFamily=Helvetica;html=1;rounded=0;shadow=0;comic=0;labelBackgroundColor=none;strokeWidth=1;">
      <mxGeometry x="7062" y="2505" width="244" height="257" as="geometry" />
    </mxCell>
    <mxCell id="node106" parent="1" vertex="1" value="&lt;p style=&quot;margin:0px;margin-top:4px;text-align:center;&quot;&gt;&lt;b&gt;Mineral&lt;/b&gt;&lt;/p&gt;&lt;hr size=&quot;1&quot;/&gt;&lt;p style=&quot;margin:0 0 0 4px;line-height:1.6;&quot;&gt;- foragingMineralType: MineralType&lt;/p&gt;" style="verticalAlign=top;align=left;overflow=fill;fontSize=14;fontFamily=Helvetica;html=1;rounded=0;shadow=0;comic=0;labelBackgroundColor=none;strokeWidth=1;">
      <mxGeometry x="3588" y="3677" width="320" height="82" as="geometry" />
    </mxCell>
    <mxCell id="node26" parent="1" vertex="1" value="&lt;p style=&quot;margin:0px;margin-top:4px;text-align:center;&quot;&gt;&lt;i&gt;&amp;lt;&amp;lt;enumeration&amp;gt;&amp;gt;&lt;/i&gt;&lt;br/&gt;&lt;b&gt;MineralType&lt;/b&gt;&lt;/p&gt;&lt;hr size=&quot;1&quot;/&gt;&lt;p style=&quot;margin:0 0 0 4px;line-height:1.6;&quot;&gt;+ IRON: &lt;br/&gt;+ COPPER_ORE: &lt;br/&gt;+ FIRE_QUARTZ: &lt;br/&gt;+ DIAMOND: &lt;br/&gt;+ IRON_ORE: &lt;br/&gt;+ AMETHYST: &lt;br/&gt;+ EARTH_CRYSTAL: &lt;br/&gt;+ TOPAZ: &lt;br/&gt;+ IRIDIUM: &lt;br/&gt;+ RUBY: &lt;br/&gt;+ PRISMATIC_SHARED: &lt;br/&gt;+ COPPER: &lt;br/&gt;+ EMERALD: &lt;br/&gt;- description: String&lt;br/&gt;+ FROZEN_TEAR: &lt;br/&gt;+ GOLD: &lt;br/&gt;- sellPrice: Integer&lt;br/&gt;+ QUARTZ: &lt;br/&gt;+ AQUAMARINE: &lt;br/&gt;+ GOLD_ORE: &lt;br/&gt;+ COAL: &lt;br/&gt;+ JADE: &lt;/p&gt;&lt;hr size=&quot;1&quot;/&gt;&lt;p style=&quot;margin:0 0 0 4px;line-height:1.6;&quot;&gt;+ values(): MineralType[]&lt;br/&gt;+ valueOf(String): MineralType&lt;/p&gt;" style="verticalAlign=top;align=left;overflow=fill;fontSize=14;fontFamily=Helvetica;html=1;rounded=0;shadow=0;comic=0;labelBackgroundColor=none;strokeWidth=1;">
      <mxGeometry x="4919" y="1199" width="278" height="767" as="geometry" />
    </mxCell>
    <mxCell id="node88" parent="1" vertex="1" value="&lt;p style=&quot;margin:0px;margin-top:4px;text-align:center;&quot;&gt;&lt;b&gt;Mission&lt;/b&gt;&lt;/p&gt;&lt;hr size=&quot;1&quot;/&gt;&lt;p style=&quot;margin:0 0 0 4px;line-height:1.6;&quot;&gt;- doer: Actor&lt;br/&gt;- reward: Map&amp;lt;Salable, Integer&amp;gt;&lt;br/&gt;- requester: Actor&lt;br/&gt;- request: Map&amp;lt;Salable, Integer&amp;gt;&lt;br/&gt;- requieredLevel: Integer&lt;br/&gt;- id: Integer&lt;/p&gt;&lt;hr size=&quot;1&quot;/&gt;&lt;p style=&quot;margin:0 0 0 4px;line-height:1.6;&quot;&gt;+ setDoer(Actor): void&lt;br/&gt;+ getId(): Integer&lt;br/&gt;+ getDoer(): Actor&lt;br/&gt;+ getRequester(): Actor&lt;br/&gt;+ getRequest(): Map&amp;lt;Salable, Integer&amp;gt;&lt;br/&gt;+ toString(): String&lt;br/&gt;+ setRequieredLevel(Integer): void&lt;br/&gt;+ getReward(): Map&amp;lt;Salable, Integer&amp;gt;&lt;br/&gt;+ getRequieredLevel(): Integer&lt;br/&gt;+ setId(Integer): void&lt;br/&gt;+ setRequester(Actor): void&lt;br/&gt;+ setRequest(Map&amp;lt;Salable, Integer&amp;gt;): void&lt;br/&gt;+ setReward(Map&amp;lt;Salable, Integer&amp;gt;): void&lt;/p&gt;" style="verticalAlign=top;align=left;overflow=fill;fontSize=14;fontFamily=Helvetica;html=1;rounded=0;shadow=0;comic=0;labelBackgroundColor=none;strokeWidth=1;">
      <mxGeometry x="948" y="1292" width="373" height="617" as="geometry" />
    </mxCell>
    <mxCell id="node96" parent="1" vertex="1" value="&lt;p style=&quot;margin:0px;margin-top:4px;text-align:center;&quot;&gt;&lt;b&gt;MixedSeeds&lt;/b&gt;&lt;/p&gt;&lt;hr size=&quot;1&quot;/&gt;&lt;p style=&quot;margin:0 0 0 4px;line-height:1.6;&quot;&gt;- mixedSeedsType: MixedSeedsType&lt;/p&gt;" style="verticalAlign=top;align=left;overflow=fill;fontSize=14;fontFamily=Helvetica;html=1;rounded=0;shadow=0;comic=0;labelBackgroundColor=none;strokeWidth=1;">
      <mxGeometry x="3009" y="1952" width="329" height="82" as="geometry" />
    </mxCell>
    <mxCell id="node91" parent="1" vertex="1" value="&lt;p style=&quot;margin:0px;margin-top:4px;text-align:center;&quot;&gt;&lt;i&gt;&amp;lt;&amp;lt;enumeration&amp;gt;&amp;gt;&lt;/i&gt;&lt;br/&gt;&lt;b&gt;MixedSeedsType&lt;/b&gt;&lt;/p&gt;&lt;hr size=&quot;1&quot;/&gt;&lt;p style=&quot;margin:0 0 0 4px;line-height:1.6;&quot;&gt;+ SPRING: &lt;br/&gt;+ FALL: &lt;br/&gt;+ WINTER: &lt;br/&gt;+ SUMMER: &lt;br/&gt;# seedTypeList: List&amp;lt;SeedType&amp;gt;&lt;/p&gt;&lt;hr size=&quot;1&quot;/&gt;&lt;p style=&quot;margin:0 0 0 4px;line-height:1.6;&quot;&gt;# initialize(): void&lt;br/&gt;+ valueOf(String): MixedSeedsType&lt;br/&gt;+ values(): MixedSeedsType[]&lt;/p&gt;" style="verticalAlign=top;align=left;overflow=fill;fontSize=14;fontFamily=Helvetica;html=1;rounded=0;shadow=0;comic=0;labelBackgroundColor=none;strokeWidth=1;">
      <mxGeometry x="1569" y="2947" width="315" height="287" as="geometry" />
    </mxCell>
    <mxCell id="node41" parent="1" vertex="1" value="&lt;p style=&quot;margin:0px;margin-top:4px;text-align:center;&quot;&gt;&lt;i&gt;&amp;lt;&amp;lt;enumeration&amp;gt;&amp;gt;&lt;/i&gt;&lt;br/&gt;&lt;b&gt;NPC&lt;/b&gt;&lt;/p&gt;&lt;hr size=&quot;1&quot;/&gt;&lt;p style=&quot;margin:0 0 0 4px;line-height:1.6;&quot;&gt;+ EBIGIL: &lt;br/&gt;- favorites: List&amp;lt;Salable&amp;gt;&lt;br/&gt;- npChHouse: NPCHouse&lt;br/&gt;+ RABIN: &lt;br/&gt;- job: String&lt;br/&gt;- id: Integer&lt;br/&gt;+ SEBASTIAN: &lt;br/&gt;- personality: String&lt;br/&gt;+ LIA: &lt;br/&gt;- name: String&lt;br/&gt;- missions: List&amp;lt;Mission&amp;gt;&lt;br/&gt;+ HARVEY: &lt;/p&gt;&lt;hr size=&quot;1&quot;/&gt;&lt;p style=&quot;margin:0 0 0 4px;line-height:1.6;&quot;&gt;+ getId(): Integer&lt;br/&gt;+ getName(): String&lt;br/&gt;+ getJob(): String&lt;br/&gt;+ getFavorites(): List&amp;lt;Salable&amp;gt;&lt;br/&gt;+ getPersonality(): String&lt;br/&gt;+ getNpChHouse(): NPCHouse&lt;br/&gt;+ getMissions(): List&amp;lt;Mission&amp;gt;&lt;br/&gt;+ toString(): String&lt;br/&gt;+ valueOf(String): NPC&lt;br/&gt;+ values(): NPC[]&lt;/p&gt;" style="verticalAlign=top;align=left;overflow=fill;fontSize=14;fontFamily=Helvetica;html=1;rounded=0;shadow=0;comic=0;labelBackgroundColor=none;strokeWidth=1;">
      <mxGeometry x="274" y="2906" width="283" height="707" as="geometry" />
    </mxCell>
    <mxCell id="node79" parent="1" vertex="1" value="&lt;p style=&quot;margin:0px;margin-top:4px;text-align:center;&quot;&gt;&lt;b&gt;NPCHouse&lt;/b&gt;&lt;/p&gt;&lt;hr size=&quot;1&quot;/&gt;" style="verticalAlign=top;align=left;overflow=fill;fontSize=14;fontFamily=Helvetica;html=1;rounded=0;shadow=0;comic=0;labelBackgroundColor=none;strokeWidth=1;">
      <mxGeometry x="1262" y="3210" width="167" height="38" as="geometry" />
    </mxCell>
    <mxCell id="node107" parent="1" vertex="1" value="&lt;p style=&quot;margin:0px;margin-top:4px;text-align:center;&quot;&gt;&lt;b&gt;NormalBackPack&lt;/b&gt;&lt;/p&gt;&lt;hr size=&quot;1&quot;/&gt;&lt;p style=&quot;margin:0 0 0 4px;line-height:1.6;&quot;&gt;+ getCapacity(): Integer&lt;br/&gt;+ getInfinite(): Boolean&lt;/p&gt;" style="verticalAlign=top;align=left;overflow=fill;fontSize=14;fontFamily=Helvetica;html=1;rounded=0;shadow=0;comic=0;labelBackgroundColor=none;strokeWidth=1;">
      <mxGeometry x="6703" y="2838" width="228" height="114" as="geometry" />
    </mxCell>
    <mxCell id="node71" parent="1" vertex="1" value="&lt;p style=&quot;margin:0px;margin-top:4px;text-align:center;&quot;&gt;&lt;i&gt;&amp;lt;&amp;lt;enumeration&amp;gt;&amp;gt;&lt;/i&gt;&lt;br/&gt;&lt;b&gt;Pickaxe&lt;/b&gt;&lt;/p&gt;&lt;hr size=&quot;1&quot;/&gt;&lt;p style=&quot;margin:0 0 0 4px;line-height:1.6;&quot;&gt;+ IRON: &lt;br/&gt;+ GOLD: &lt;br/&gt;- energyCost: int&lt;br/&gt;+ IRIDIUM: &lt;br/&gt;- level: int&lt;br/&gt;+ NORMAL: &lt;br/&gt;+ CUPPER: &lt;/p&gt;&lt;hr size=&quot;1&quot;/&gt;&lt;p style=&quot;margin:0 0 0 4px;line-height:1.6;&quot;&gt;+ values(): Pickaxe[]&lt;br/&gt;+ valueOf(String): Pickaxe&lt;br/&gt;+ getLevel(): int&lt;/p&gt;" style="verticalAlign=top;align=left;overflow=fill;fontSize=14;fontFamily=Helvetica;html=1;rounded=0;shadow=0;comic=0;labelBackgroundColor=none;strokeWidth=1;">
      <mxGeometry x="5809" y="2213" width="243" height="347" as="geometry" />
    </mxCell>
    <mxCell id="node76" parent="1" vertex="1" value="&lt;p style=&quot;margin:0px;margin-top:4px;text-align:center;&quot;&gt;&lt;b&gt;PierrsStore&lt;/b&gt;&lt;/p&gt;&lt;hr size=&quot;1&quot;/&gt;" style="verticalAlign=top;align=left;overflow=fill;fontSize=14;fontFamily=Helvetica;html=1;rounded=0;shadow=0;comic=0;labelBackgroundColor=none;strokeWidth=1;">
      <mxGeometry x="3944" y="3473" width="168" height="38" as="geometry" />
    </mxCell>
    <mxCell id="node47" parent="1" vertex="1" value="&lt;p style=&quot;margin:0px;margin-top:4px;text-align:center;&quot;&gt;&lt;b&gt;Player&lt;/b&gt;&lt;/p&gt;&lt;hr size=&quot;1&quot;/&gt;&lt;p style=&quot;margin:0 0 0 4px;line-height:1.6;&quot;&gt;- shippingBinList: List&amp;lt;ShippingBin&amp;gt;&lt;br/&gt;- abilities: Map&amp;lt;Ability, Integer&amp;gt;&lt;br/&gt;- inventory: BackPack&lt;br/&gt;- buff: Buff&lt;br/&gt;- energy: Integer&lt;br/&gt;- id: Integer&lt;br/&gt;- maxEnergy: Integer&lt;br/&gt;+ user: User&lt;br/&gt;- couple: Player&lt;br/&gt;- marridge: List&amp;lt;Marry&amp;gt;&lt;br/&gt;- account: Account&lt;br/&gt;- gootenTradeList: List&amp;lt;Trade&amp;gt;&lt;br/&gt;- energyPerTurn: Integer&lt;br/&gt;- energyIsInfinite: Boolean&lt;/p&gt;&lt;hr size=&quot;1&quot;/&gt;&lt;p style=&quot;margin:0 0 0 4px;line-height:1.6;&quot;&gt;+ getBuff(): Buff&lt;br/&gt;+ getId(): Integer&lt;br/&gt;+ setEnergyPerTurn(Integer): void&lt;br/&gt;+ toString(): String&lt;br/&gt;+ getGootenTradeList(): List&amp;lt;Trade&amp;gt;&lt;br/&gt;+ setMaxEnergy(Integer): void&lt;br/&gt;+ setGootenTradeList(List&amp;lt;Trade&amp;gt;): void&lt;br/&gt;+ setId(Integer): void&lt;br/&gt;+ getUser(): User&lt;br/&gt;+ getCouple(): Player&lt;br/&gt;+ getAccount(): Account&lt;br/&gt;+ setCouple(Player): void&lt;br/&gt;+ setEnergyIsInfinite(Boolean): void&lt;br/&gt;+ setBuff(Buff): void&lt;br/&gt;+ setAccount(Account): void&lt;br/&gt;+ getEnergy(): Integer&lt;br/&gt;+ getMaxEnergy(): Integer&lt;br/&gt;+ setAbilities(Map&amp;lt;Ability, Integer&amp;gt;): void&lt;br/&gt;+ setUser(User): void&lt;br/&gt;+ getEnergyPerTurn(): Integer&lt;br/&gt;+ getEnergyIsInfinite(): Boolean&lt;br/&gt;+ setEnergy(Integer): void&lt;br/&gt;+ setMarridge(List&amp;lt;Marry&amp;gt;): void&lt;br/&gt;+ setInventory(BackPack): void&lt;br/&gt;+ getInventory(): BackPack&lt;br/&gt;+ getMarridge(): List&amp;lt;Marry&amp;gt;&lt;br/&gt;+ setShippingBinList(List&amp;lt;ShippingBin&amp;gt;): void&lt;br/&gt;+ getAbilities(): Map&amp;lt;Ability, Integer&amp;gt;&lt;br/&gt;+ getShippingBinList(): List&amp;lt;ShippingBin&amp;gt;&lt;/p&gt;" style="verticalAlign=top;align=left;overflow=fill;fontSize=14;fontFamily=Helvetica;html=1;rounded=0;shadow=0;comic=0;labelBackgroundColor=none;strokeWidth=1;">
      <mxGeometry x="-180" y="2663" width="393" height="1337" as="geometry" />
    </mxCell>
    <mxCell id="node28" parent="1" vertex="1" value="&lt;p style=&quot;margin:0px;margin-top:4px;text-align:center;&quot;&gt;&lt;i&gt;&amp;lt;&amp;lt;interface&amp;gt;&amp;gt;&lt;/i&gt;&lt;br/&gt;&lt;b&gt;Product&lt;/b&gt;&lt;/p&gt;&lt;hr size=&quot;1&quot;/&gt;" style="verticalAlign=top;align=left;overflow=fill;fontSize=14;fontFamily=Helvetica;html=1;rounded=0;shadow=0;comic=0;labelBackgroundColor=none;strokeWidth=1;">
      <mxGeometry x="3655" y="2290" width="137" height="44" as="geometry" />
    </mxCell>
    <mxCell id="node68" parent="1" vertex="1" value="&lt;p style=&quot;margin:0px;margin-top:4px;text-align:center;&quot;&gt;&lt;b&gt;ProfileController&lt;/b&gt;&lt;/p&gt;&lt;hr size=&quot;1&quot;/&gt;" style="verticalAlign=top;align=left;overflow=fill;fontSize=14;fontFamily=Helvetica;html=1;rounded=0;shadow=0;comic=0;labelBackgroundColor=none;strokeWidth=1;">
      <mxGeometry x="6328" y="2155" width="218" height="38" as="geometry" />
    </mxCell>
    <mxCell id="node39" parent="1" vertex="1" value="&lt;p style=&quot;margin:0px;margin-top:4px;text-align:center;&quot;&gt;&lt;b&gt;ProfileMenu&lt;/b&gt;&lt;/p&gt;&lt;hr size=&quot;1&quot;/&gt;" style="verticalAlign=top;align=left;overflow=fill;fontSize=14;fontFamily=Helvetica;html=1;rounded=0;shadow=0;comic=0;labelBackgroundColor=none;strokeWidth=1;">
      <mxGeometry x="1643" y="1658" width="178" height="38" as="geometry" />
    </mxCell>
    <mxCell id="node77" parent="1" vertex="1" value="&lt;p style=&quot;margin:0px;margin-top:4px;text-align:center;&quot;&gt;&lt;b&gt;Quarry&lt;/b&gt;&lt;/p&gt;&lt;hr size=&quot;1&quot;/&gt;" style="verticalAlign=top;align=left;overflow=fill;fontSize=14;fontFamily=Helvetica;html=1;rounded=0;shadow=0;comic=0;labelBackgroundColor=none;strokeWidth=1;">
      <mxGeometry x="1256" y="3037" width="126" height="38" as="geometry" />
    </mxCell>
    <mxCell id="node103" parent="1" vertex="1" value="&lt;p style=&quot;margin:0px;margin-top:4px;text-align:center;&quot;&gt;&lt;b&gt;Recipe&lt;/b&gt;&lt;/p&gt;&lt;hr size=&quot;1&quot;/&gt;&lt;p style=&quot;margin:0 0 0 4px;line-height:1.6;&quot;&gt;- id: Integer&lt;br/&gt;- description: String&lt;br/&gt;- dailyLimit: Integer&lt;br/&gt;- price: Integer&lt;/p&gt;&lt;hr size=&quot;1&quot;/&gt;&lt;p style=&quot;margin:0 0 0 4px;line-height:1.6;&quot;&gt;+ getId(): Integer&lt;br/&gt;+ getDescription(): String&lt;br/&gt;+ getPrice(): Integer&lt;br/&gt;+ getDailyLimit(): Integer&lt;br/&gt;+ setId(Integer): void&lt;br/&gt;+ setDescription(String): void&lt;br/&gt;+ setPrice(Integer): void&lt;br/&gt;+ setDailyLimit(Integer): void&lt;br/&gt;+ toString(): String&lt;/p&gt;" style="verticalAlign=top;align=left;overflow=fill;fontSize=14;fontFamily=Helvetica;html=1;rounded=0;shadow=0;comic=0;labelBackgroundColor=none;strokeWidth=1;">
      <mxGeometry x="-59" y="1338" width="269" height="437" as="geometry" />
    </mxCell>
    <mxCell id="node10" parent="1" vertex="1" value="&lt;p style=&quot;margin:0px;margin-top:4px;text-align:center;&quot;&gt;&lt;i&gt;&amp;lt;&amp;lt;interface&amp;gt;&amp;gt;&lt;/i&gt;&lt;br/&gt;&lt;b&gt;Salable&lt;/b&gt;&lt;/p&gt;&lt;hr size=&quot;1&quot;/&gt;" style="verticalAlign=top;align=left;overflow=fill;fontSize=14;fontFamily=Helvetica;html=1;rounded=0;shadow=0;comic=0;labelBackgroundColor=none;strokeWidth=1;">
      <mxGeometry x="3020" y="1346" width="132" height="44" as="geometry" />
    </mxCell>
    <mxCell id="node57" parent="1" vertex="1" value="&lt;p style=&quot;margin:0px;margin-top:4px;text-align:center;&quot;&gt;&lt;b&gt;Scythe&lt;/b&gt;&lt;/p&gt;&lt;hr size=&quot;1&quot;/&gt;&lt;p style=&quot;margin:0 0 0 4px;line-height:1.6;&quot;&gt;- energyUse: Integer&lt;/p&gt;&lt;hr size=&quot;1&quot;/&gt;&lt;p style=&quot;margin:0 0 0 4px;line-height:1.6;&quot;&gt;+ getEnergyUse(): Integer&lt;/p&gt;" style="verticalAlign=top;align=left;overflow=fill;fontSize=14;fontFamily=Helvetica;html=1;rounded=0;shadow=0;comic=0;labelBackgroundColor=none;strokeWidth=1;">
      <mxGeometry x="5209" y="2241" width="244" height="116" as="geometry" />
    </mxCell>
    <mxCell id="node58" parent="1" vertex="1" value="&lt;p style=&quot;margin:0px;margin-top:4px;text-align:center;&quot;&gt;&lt;i&gt;&amp;lt;&amp;lt;enumeration&amp;gt;&amp;gt;&lt;/i&gt;&lt;br/&gt;&lt;b&gt;Season&lt;/b&gt;&lt;/p&gt;&lt;hr size=&quot;1&quot;/&gt;&lt;p style=&quot;margin:0 0 0 4px;line-height:1.6;&quot;&gt;+ SUMMER: &lt;br/&gt;+ WINTER: &lt;br/&gt;+ SPECIAL: &lt;br/&gt;+ FALL: &lt;br/&gt;+ SPRING: &lt;/p&gt;&lt;hr size=&quot;1&quot;/&gt;&lt;p style=&quot;margin:0 0 0 4px;line-height:1.6;&quot;&gt;+ toString(): String&lt;br/&gt;+ values(): Season[]&lt;br/&gt;+ valueOf(String): Season&lt;/p&gt;" style="verticalAlign=top;align=left;overflow=fill;fontSize=14;fontFamily=Helvetica;html=1;rounded=0;shadow=0;comic=0;labelBackgroundColor=none;strokeWidth=1;">
      <mxGeometry x="3221" y="1130" width="241" height="287" as="geometry" />
    </mxCell>
    <mxCell id="node105" parent="1" vertex="1" value="&lt;p style=&quot;margin:0px;margin-top:4px;text-align:center;&quot;&gt;&lt;b&gt;Seed&lt;/b&gt;&lt;/p&gt;&lt;hr size=&quot;1&quot;/&gt;&lt;p style=&quot;margin:0 0 0 4px;line-height:1.6;&quot;&gt;- seedType: SeedType&lt;/p&gt;" style="verticalAlign=top;align=left;overflow=fill;fontSize=14;fontFamily=Helvetica;html=1;rounded=0;shadow=0;comic=0;labelBackgroundColor=none;strokeWidth=1;">
      <mxGeometry x="2569" y="2522" width="218" height="82" as="geometry" />
    </mxCell>
    <mxCell id="node1" parent="1" vertex="1" value="&lt;p style=&quot;margin:0px;margin-top:4px;text-align:center;&quot;&gt;&lt;i&gt;&amp;lt;&amp;lt;enumeration&amp;gt;&amp;gt;&lt;/i&gt;&lt;br/&gt;&lt;b&gt;SeedType&lt;/b&gt;&lt;/p&gt;&lt;hr size=&quot;1&quot;/&gt;&lt;p style=&quot;margin:0 0 0 4px;line-height:1.6;&quot;&gt;+ JAZZ_SEEDS: &lt;br/&gt;+ PEPPER_SEEDS: &lt;br/&gt;+ ANCIENT_SEEDS: &lt;br/&gt;+ RHUBARB_SEEDS: &lt;br/&gt;+ SPANGLE_SEEDS: &lt;br/&gt;+ GARLIC_SEEDS: &lt;br/&gt;+ TULIP_BULB: &lt;br/&gt;+ RARE_SEED: &lt;br/&gt;+ HOPS_STARTER: &lt;br/&gt;+ KALE_SEEDS: &lt;br/&gt;+ SUNFLOWER_SEEDS: &lt;br/&gt;- name: String&lt;br/&gt;+ CORN_SEEDS: &lt;br/&gt;+ AMARANTH_SEEDS: &lt;br/&gt;+ TOMATO_SEEDS: &lt;br/&gt;+ POWDERMELON_SEEDS: &lt;br/&gt;- isForaging: boolean&lt;br/&gt;+ BEAN_STARTER: &lt;br/&gt;+ CAULIFLOWER_SEEDS: &lt;br/&gt;+ POPPY_SEEDS: &lt;br/&gt;+ GRAPE_STARTER: &lt;br/&gt;+ YAM_SEEDS: &lt;br/&gt;+ POTATO_SEEDS: &lt;br/&gt;+ BLUEBERRY_SEEDS: &lt;br/&gt;+ STARFRUIT_SEEDS: &lt;br/&gt;+ COFFEE_BEAN: &lt;br/&gt;+ MIXED_SEEDS: &lt;br/&gt;+ WHEAT_SEEDS: &lt;br/&gt;+ CRANBERRY_SEEDS: &lt;br/&gt;+ PARSNIP_SEEDS: &lt;br/&gt;+ MELON_SEEDS: &lt;br/&gt;+ SUMMER_SQUASH_SEEDS: &lt;br/&gt;+ BOK_CHOY_SEEDS: &lt;br/&gt;+ CARROT_SEEDS: &lt;br/&gt;+ FAIRY_SEEDS: &lt;br/&gt;+ STRAWBERRY_SEEDS: &lt;br/&gt;+ ARTICHOKE_SEEDS: &lt;br/&gt;+ RICE_SHOOT: &lt;br/&gt;+ BEET_SEEDS: &lt;br/&gt;+ PUMPKIN_SEEDS: &lt;br/&gt;- season: Season&lt;br/&gt;+ RED_CABBAGE_SEEDS: &lt;br/&gt;+ BROCCOLI_SEEDS: &lt;br/&gt;+ RADISH_SEEDS: &lt;br/&gt;+ EGGPLANT_SEEDS: &lt;/p&gt;&lt;hr size=&quot;1&quot;/&gt;&lt;p style=&quot;margin:0 0 0 4px;line-height:1.6;&quot;&gt;+ values(): SeedType[]&lt;br/&gt;+ valueOf(String): SeedType&lt;/p&gt;" style="verticalAlign=top;align=left;overflow=fill;fontSize=14;fontFamily=Helvetica;html=1;rounded=0;shadow=0;comic=0;labelBackgroundColor=none;strokeWidth=1;">
      <mxGeometry x="3244" y="2439" width="270" height="1457" as="geometry" />
    </mxCell>
    <mxCell id="node72" parent="1" vertex="1" value="&lt;p style=&quot;margin:0px;margin-top:4px;text-align:center;&quot;&gt;&lt;i&gt;&amp;lt;&amp;lt;enumeration&amp;gt;&amp;gt;&lt;/i&gt;&lt;br/&gt;&lt;b&gt;Shear&lt;/b&gt;&lt;/p&gt;&lt;hr size=&quot;1&quot;/&gt;&lt;p style=&quot;margin:0 0 0 4px;line-height:1.6;&quot;&gt;- energyUse: Integer&lt;br/&gt;+ SHEAR: &lt;br/&gt;- price: Integer&lt;/p&gt;&lt;hr size=&quot;1&quot;/&gt;&lt;p style=&quot;margin:0 0 0 4px;line-height:1.6;&quot;&gt;+ values(): Shear[]&lt;br/&gt;+ valueOf(String): Shear&lt;br/&gt;+ getEnergyUse(): Integer&lt;br/&gt;+ getPrice(): Integer&lt;/p&gt;" style="verticalAlign=top;align=left;overflow=fill;fontSize=14;fontFamily=Helvetica;html=1;rounded=0;shadow=0;comic=0;labelBackgroundColor=none;strokeWidth=1;">
      <mxGeometry x="5457" y="2640" width="244" height="257" as="geometry" />
    </mxCell>
    <mxCell id="node6" parent="1" vertex="1" value="&lt;p style=&quot;margin:0px;margin-top:4px;text-align:center;&quot;&gt;&lt;b&gt;Shelter&lt;/b&gt;&lt;/p&gt;&lt;hr size=&quot;1&quot;/&gt;" style="verticalAlign=top;align=left;overflow=fill;fontSize=14;fontFamily=Helvetica;html=1;rounded=0;shadow=0;comic=0;labelBackgroundColor=none;strokeWidth=1;">
      <mxGeometry x="748" y="2819" width="131" height="38" as="geometry" />
    </mxCell>
    <mxCell id="node54" parent="1" vertex="1" value="&lt;p style=&quot;margin:0px;margin-top:4px;text-align:center;&quot;&gt;&lt;b&gt;ShippingBin&lt;/b&gt;&lt;/p&gt;&lt;hr size=&quot;1&quot;/&gt;&lt;p style=&quot;margin:0 0 0 4px;line-height:1.6;&quot;&gt;- salables: List&amp;lt;Salable&amp;gt;&lt;/p&gt;&lt;hr size=&quot;1&quot;/&gt;&lt;p style=&quot;margin:0 0 0 4px;line-height:1.6;&quot;&gt;+ getSalables(): List&amp;lt;Salable&amp;gt;&lt;br/&gt;+ setSalables(List&amp;lt;Salable&amp;gt;): void&lt;br/&gt;+ toString(): String&lt;/p&gt;" style="verticalAlign=top;align=left;overflow=fill;fontSize=14;fontFamily=Helvetica;html=1;rounded=0;shadow=0;comic=0;labelBackgroundColor=none;strokeWidth=1;">
      <mxGeometry x="1898" y="2701" width="306" height="167" as="geometry" />
    </mxCell>
    <mxCell id="node0" parent="1" vertex="1" value="&lt;p style=&quot;margin:0px;margin-top:4px;text-align:center;&quot;&gt;&lt;i&gt;&amp;lt;&amp;lt;interface&amp;gt;&amp;gt;&lt;/i&gt;&lt;br/&gt;&lt;b&gt;Source&lt;/b&gt;&lt;/p&gt;&lt;hr size=&quot;1&quot;/&gt;" style="verticalAlign=top;align=left;overflow=fill;fontSize=14;fontFamily=Helvetica;html=1;rounded=0;shadow=0;comic=0;labelBackgroundColor=none;strokeWidth=1;">
      <mxGeometry x="3129" y="1529" width="130" height="44" as="geometry" />
    </mxCell>
    <mxCell id="node27" parent="1" vertex="1" value="&lt;p style=&quot;margin:0px;margin-top:4px;text-align:center;&quot;&gt;&lt;b&gt;StardropSaloon&lt;/b&gt;&lt;/p&gt;&lt;hr size=&quot;1&quot;/&gt;" style="verticalAlign=top;align=left;overflow=fill;fontSize=14;fontFamily=Helvetica;html=1;rounded=0;shadow=0;comic=0;labelBackgroundColor=none;strokeWidth=1;">
      <mxGeometry x="4197" y="3608" width="209" height="38" as="geometry" />
    </mxCell>
    <mxCell id="node64" parent="1" vertex="1" value="&lt;p style=&quot;margin:0px;margin-top:4px;text-align:center;&quot;&gt;&lt;b&gt;Stone&lt;/b&gt;&lt;/p&gt;&lt;hr size=&quot;1&quot;/&gt;" style="verticalAlign=top;align=left;overflow=fill;fontSize=14;fontFamily=Helvetica;html=1;rounded=0;shadow=0;comic=0;labelBackgroundColor=none;strokeWidth=1;">
      <mxGeometry x="1072" y="3116" width="119" height="38" as="geometry" />
    </mxCell>
    <mxCell id="node78" parent="1" vertex="1" value="&lt;p style=&quot;margin:0px;margin-top:4px;text-align:center;&quot;&gt;&lt;b&gt;Store&lt;/b&gt;&lt;/p&gt;&lt;hr size=&quot;1&quot;/&gt;&lt;p style=&quot;margin:0 0 0 4px;line-height:1.6;&quot;&gt;# shopperName: String&lt;br/&gt;# openDoorTime: Integer&lt;br/&gt;# closeDoorTime: Integer&lt;/p&gt;&lt;hr size=&quot;1&quot;/&gt;&lt;p style=&quot;margin:0 0 0 4px;line-height:1.6;&quot;&gt;+ setShopperName(String): void&lt;br/&gt;+ setOpenDoorTime(Integer): void&lt;br/&gt;+ setCloseDoorTime(Integer): void&lt;br/&gt;+ toString(): String&lt;br/&gt;+ getShopperName(): String&lt;br/&gt;+ getCloseDoorTime(): Integer&lt;br/&gt;+ getOpenDoorTime(): Integer&lt;/p&gt;" style="verticalAlign=top;align=left;overflow=fill;fontSize=14;fontFamily=Helvetica;html=1;rounded=0;shadow=0;comic=0;labelBackgroundColor=none;strokeWidth=1;">
      <mxGeometry x="2872" y="2494" width="308" height="347" as="geometry" />
    </mxCell>
    <mxCell id="node100" parent="1" vertex="1" value="&lt;p style=&quot;margin:0px;margin-top:4px;text-align:center;&quot;&gt;&lt;i&gt;&amp;lt;&amp;lt;interface&amp;gt;&amp;gt;&lt;/i&gt;&lt;br/&gt;&lt;b&gt;Structure&lt;/b&gt;&lt;/p&gt;&lt;hr size=&quot;1&quot;/&gt;&lt;p style=&quot;margin:0 0 0 4px;line-height:1.6;&quot;&gt;+ id: Integer&lt;br/&gt;+ tiles: List&amp;lt;Tile&amp;gt;&lt;/p&gt;" style="verticalAlign=top;align=left;overflow=fill;fontSize=14;fontFamily=Helvetica;html=1;rounded=0;shadow=0;comic=0;labelBackgroundColor=none;strokeWidth=1;">
      <mxGeometry x="1906" y="2331" width="177" height="133" as="geometry" />
    </mxCell>
    <mxCell id="node30" parent="1" vertex="1" value="&lt;p style=&quot;margin:0px;margin-top:4px;text-align:center;&quot;&gt;&lt;b&gt;Tile&lt;/b&gt;&lt;/p&gt;&lt;hr size=&quot;1&quot;/&gt;&lt;p style=&quot;margin:0 0 0 4px;line-height:1.6;&quot;&gt;- id: Integer&lt;br/&gt;- x: Integer&lt;br/&gt;- isPassable: Boolean&lt;br/&gt;- y: Integer&lt;br/&gt;- isFilled: Boolean&lt;/p&gt;&lt;hr size=&quot;1&quot;/&gt;&lt;p style=&quot;margin:0 0 0 4px;line-height:1.6;&quot;&gt;+ setY(Integer): void&lt;br/&gt;+ getId(): Integer&lt;br/&gt;+ getX(): Integer&lt;br/&gt;+ getY(): Integer&lt;br/&gt;+ getIsFilled(): Boolean&lt;br/&gt;+ getIsPassable(): Boolean&lt;br/&gt;+ setId(Integer): void&lt;br/&gt;+ setX(Integer): void&lt;br/&gt;+ setIsFilled(Boolean): void&lt;br/&gt;+ setIsPassable(Boolean): void&lt;br/&gt;+ toString(): String&lt;/p&gt;" style="verticalAlign=top;align=left;overflow=fill;fontSize=14;fontFamily=Helvetica;html=1;rounded=0;shadow=0;comic=0;labelBackgroundColor=none;strokeWidth=1;">
      <mxGeometry x="4991" y="388" width="277" height="527" as="geometry" />
    </mxCell>
    <mxCell id="node83" parent="1" vertex="1" value="&lt;p style=&quot;margin:0px;margin-top:4px;text-align:center;&quot;&gt;&lt;b&gt;TimeAndDate&lt;/b&gt;&lt;/p&gt;&lt;hr size=&quot;1&quot;/&gt;&lt;p style=&quot;margin:0 0 0 4px;line-height:1.6;&quot;&gt;- day: Integer&lt;br/&gt;- season: Season&lt;br/&gt;- hour: Integer&lt;br/&gt;- minute: Integer&lt;/p&gt;&lt;hr size=&quot;1&quot;/&gt;&lt;p style=&quot;margin:0 0 0 4px;line-height:1.6;&quot;&gt;+ getHour(): Integer&lt;br/&gt;+ getMinute(): Integer&lt;br/&gt;+ getSeason(): Season&lt;br/&gt;+ getDay(): Integer&lt;br/&gt;+ setHour(Integer): void&lt;br/&gt;+ setMinute(Integer): void&lt;br/&gt;+ setSeason(Season): void&lt;br/&gt;+ setDay(Integer): void&lt;br/&gt;+ toString(): String&lt;/p&gt;" style="verticalAlign=top;align=left;overflow=fill;fontSize=14;fontFamily=Helvetica;html=1;rounded=0;shadow=0;comic=0;labelBackgroundColor=none;strokeWidth=1;">
      <mxGeometry x="2147" y="1877" width="247" height="437" as="geometry" />
    </mxCell>
    <mxCell id="node7" parent="1" vertex="1" value="&lt;p style=&quot;margin:0px;margin-top:4px;text-align:center;&quot;&gt;&lt;i&gt;&amp;lt;&amp;lt;interface&amp;gt;&amp;gt;&lt;/i&gt;&lt;br/&gt;&lt;b&gt;Tool&lt;/b&gt;&lt;/p&gt;&lt;hr size=&quot;1&quot;/&gt;" style="verticalAlign=top;align=left;overflow=fill;fontSize=14;fontFamily=Helvetica;html=1;rounded=0;shadow=0;comic=0;labelBackgroundColor=none;strokeWidth=1;">
      <mxGeometry x="4219" y="1905" width="105" height="44" as="geometry" />
    </mxCell>
    <mxCell id="node5" parent="1" vertex="1" value="&lt;p style=&quot;margin:0px;margin-top:4px;text-align:center;&quot;&gt;&lt;b&gt;Trade&lt;/b&gt;&lt;/p&gt;&lt;hr size=&quot;1&quot;/&gt;&lt;p style=&quot;margin:0 0 0 4px;line-height:1.6;&quot;&gt;- quantity: Integer&lt;br/&gt;- isAccepted: Boolean&lt;br/&gt;- salable: Salable&lt;br/&gt;- id: Integer&lt;br/&gt;- customer: Player&lt;br/&gt;- quantityRequired: Integer&lt;br/&gt;- requieredSalable: Salable&lt;br/&gt;- trader: Player&lt;br/&gt;- price: Integer&lt;/p&gt;&lt;hr size=&quot;1&quot;/&gt;&lt;p style=&quot;margin:0 0 0 4px;line-height:1.6;&quot;&gt;+ getQuantityRequired(): Integer&lt;br/&gt;+ getId(): Integer&lt;br/&gt;+ getCustomer(): Player&lt;br/&gt;+ setCustomer(Player): void&lt;br/&gt;+ getTrader(): Player&lt;br/&gt;+ setQuantityRequired(Integer): void&lt;br/&gt;+ setIsAccepted(Boolean): void&lt;br/&gt;+ getSalable(): Salable&lt;br/&gt;+ getQuantity(): Integer&lt;br/&gt;+ setSalable(Salable): void&lt;br/&gt;+ getRequieredSalable(): Salable&lt;br/&gt;+ getIsAccepted(): Boolean&lt;br/&gt;+ setQuantity(Integer): void&lt;br/&gt;+ setPrice(Integer): void&lt;br/&gt;+ getPrice(): Integer&lt;br/&gt;+ setTrader(Player): void&lt;br/&gt;+ setId(Integer): void&lt;br/&gt;+ toString(): String&lt;br/&gt;+ setRequieredSalable(Salable): void&lt;/p&gt;" style="verticalAlign=top;align=left;overflow=fill;fontSize=14;fontFamily=Helvetica;html=1;rounded=0;shadow=0;comic=0;labelBackgroundColor=none;strokeWidth=1;">
      <mxGeometry x="6569" y="1194" width="323" height="887" as="geometry" />
    </mxCell>
    <mxCell id="node13" parent="1" vertex="1" value="&lt;p style=&quot;margin:0px;margin-top:4px;text-align:center;&quot;&gt;&lt;b&gt;TradeMenu&lt;/b&gt;&lt;/p&gt;&lt;hr size=&quot;1&quot;/&gt;" style="verticalAlign=top;align=left;overflow=fill;fontSize=14;fontFamily=Helvetica;html=1;rounded=0;shadow=0;comic=0;labelBackgroundColor=none;strokeWidth=1;">
      <mxGeometry x="6046" y="2113" width="172" height="38" as="geometry" />
    </mxCell>
    <mxCell id="node23" parent="1" vertex="1" value="&lt;p style=&quot;margin:0px;margin-top:4px;text-align:center;&quot;&gt;&lt;i&gt;&amp;lt;&amp;lt;enumeration&amp;gt;&amp;gt;&lt;/i&gt;&lt;br/&gt;&lt;b&gt;TrashCan&lt;/b&gt;&lt;/p&gt;&lt;hr size=&quot;1&quot;/&gt;&lt;p style=&quot;margin:0 0 0 4px;line-height:1.6;&quot;&gt;+ CUPPER: &lt;br/&gt;+ GOLD: &lt;br/&gt;+ IRON: &lt;br/&gt;+ IRIDIUM: &lt;br/&gt;+ NORMAL: &lt;br/&gt;- rerunedValue: Integer&lt;/p&gt;&lt;hr size=&quot;1&quot;/&gt;&lt;p style=&quot;margin:0 0 0 4px;line-height:1.6;&quot;&gt;+ getRerunedValue(): int&lt;br/&gt;+ values(): TrashCan[]&lt;br/&gt;+ valueOf(String): TrashCan&lt;/p&gt;" style="verticalAlign=top;align=left;overflow=fill;fontSize=14;fontFamily=Helvetica;html=1;rounded=0;shadow=0;comic=0;labelBackgroundColor=none;strokeWidth=1;">
      <mxGeometry x="4920" y="2467" width="259" height="317" as="geometry" />
    </mxCell>
    <mxCell id="node69" parent="1" vertex="1" value="&lt;p style=&quot;margin:0px;margin-top:4px;text-align:center;&quot;&gt;&lt;b&gt;Tree&lt;/b&gt;&lt;/p&gt;&lt;hr size=&quot;1&quot;/&gt;&lt;p style=&quot;margin:0 0 0 4px;line-height:1.6;&quot;&gt;~ treeType: TreeType&lt;/p&gt;&lt;hr size=&quot;1&quot;/&gt;&lt;p style=&quot;margin:0 0 0 4px;line-height:1.6;&quot;&gt;+ getTreeType(): TreeType&lt;br/&gt;+ setTreeType(TreeType): void&lt;br/&gt;+ toString(): String&lt;/p&gt;" style="verticalAlign=top;align=left;overflow=fill;fontSize=14;fontFamily=Helvetica;html=1;rounded=0;shadow=0;comic=0;labelBackgroundColor=none;strokeWidth=1;">
      <mxGeometry x="1546" y="2709" width="281" height="167" as="geometry" />
    </mxCell>
    <mxCell id="node33" parent="1" vertex="1" value="&lt;p style=&quot;margin:0px;margin-top:4px;text-align:center;&quot;&gt;&lt;i&gt;&amp;lt;&amp;lt;enumeration&amp;gt;&amp;gt;&lt;/i&gt;&lt;br/&gt;&lt;b&gt;TreeType&lt;/b&gt;&lt;/p&gt;&lt;hr size=&quot;1&quot;/&gt;&lt;p style=&quot;margin:0 0 0 4px;line-height:1.6;&quot;&gt;+ CHERRY_TREE: &lt;br/&gt;+ ORANGE_TREE: &lt;br/&gt;- source: Source&lt;br/&gt;+ PINE_TREE: &lt;br/&gt;+ PINE_CONES: &lt;br/&gt;+ APRICOT_TREE: &lt;br/&gt;+ APPLE_TREE: &lt;br/&gt;+ MAPLE_TREE: &lt;br/&gt;+ MANGO_TREE: &lt;br/&gt;- fruit: FruitType&lt;br/&gt;+ MUSHROOM_TREE: &lt;br/&gt;+ MUSHROOM_TREE_SEEDS: &lt;br/&gt;- IsForaging: Boolean&lt;br/&gt;- name: String&lt;br/&gt;+ PEACH_TREE: &lt;br/&gt;+ MAPLE_SEEDS: &lt;br/&gt;+ OAK_TREE: &lt;br/&gt;+ MAHOGANY_SEEDS: &lt;br/&gt;- season: Season&lt;br/&gt;- harvestStages: List&amp;lt;Integer&amp;gt;&lt;br/&gt;+ MYSTIC_TREE: &lt;br/&gt;+ BANANA_TREE: &lt;br/&gt;+ MAHOGANY_TREE: &lt;br/&gt;+ ACORNS: &lt;br/&gt;+ POMEGRANATE_TREE: &lt;/p&gt;&lt;hr size=&quot;1&quot;/&gt;&lt;p style=&quot;margin:0 0 0 4px;line-height:1.6;&quot;&gt;+ getIsForaging(): Boolean&lt;br/&gt;+ getHarvestStages(): List&amp;lt;Integer&amp;gt;&lt;br/&gt;+ getFruit(): FruitType&lt;br/&gt;+ getSeason(): Season&lt;br/&gt;+ getName(): String&lt;br/&gt;+ getSource(): Source&lt;br/&gt;+ toString(): String&lt;br/&gt;+ valueOf(String): TreeType&lt;br/&gt;+ values(): TreeType[]&lt;/p&gt;" style="verticalAlign=top;align=left;overflow=fill;fontSize=14;fontFamily=Helvetica;html=1;rounded=0;shadow=0;comic=0;labelBackgroundColor=none;strokeWidth=1;">
      <mxGeometry x="4144" y="239" width="322" height="1067" as="geometry" />
    </mxCell>
    <mxCell id="node15" parent="1" vertex="1" value="&lt;p style=&quot;margin:0px;margin-top:4px;text-align:center;&quot;&gt;&lt;b&gt;User&lt;/b&gt;&lt;/p&gt;&lt;hr size=&quot;1&quot;/&gt;&lt;p style=&quot;margin:0 0 0 4px;line-height:1.6;&quot;&gt;- email: String&lt;br/&gt;- nickname: String&lt;br/&gt;- username: String&lt;br/&gt;- password: String&lt;br/&gt;- id: Integer&lt;/p&gt;&lt;hr size=&quot;1&quot;/&gt;&lt;p style=&quot;margin:0 0 0 4px;line-height:1.6;&quot;&gt;+ getId(): Integer&lt;br/&gt;+ getUsername(): String&lt;br/&gt;+ getPassword(): String&lt;br/&gt;+ getEmail(): String&lt;br/&gt;+ getNickname(): String&lt;br/&gt;+ setId(Integer): void&lt;br/&gt;+ setUsername(String): void&lt;br/&gt;+ setPassword(String): void&lt;br/&gt;+ setEmail(String): void&lt;br/&gt;+ setNickname(String): void&lt;br/&gt;+ toString(): String&lt;/p&gt;" style="verticalAlign=top;align=left;overflow=fill;fontSize=14;fontFamily=Helvetica;html=1;rounded=0;shadow=0;comic=0;labelBackgroundColor=none;strokeWidth=1;">
      <mxGeometry x="5670" y="1089" width="258" height="527" as="geometry" />
    </mxCell>
    <mxCell id="node36" parent="1" vertex="1" value="&lt;p style=&quot;margin:0px;margin-top:4px;text-align:center;&quot;&gt;&lt;b&gt;Village&lt;/b&gt;&lt;/p&gt;&lt;hr size=&quot;1&quot;/&gt;&lt;p style=&quot;margin:0 0 0 4px;line-height:1.6;&quot;&gt;- tiles: List&amp;lt;Tile&amp;gt;&lt;br/&gt;- structures: List&amp;lt;Structure&amp;gt;&lt;/p&gt;&lt;hr size=&quot;1&quot;/&gt;&lt;p style=&quot;margin:0 0 0 4px;line-height:1.6;&quot;&gt;+ getTiles(): List&amp;lt;Tile&amp;gt;&lt;br/&gt;+ getStructures(): List&amp;lt;Structure&amp;gt;&lt;br/&gt;+ setTiles(List&amp;lt;Tile&amp;gt;): void&lt;br/&gt;+ setStructures(List&amp;lt;Structure&amp;gt;): void&lt;br/&gt;+ toString(): String&lt;/p&gt;" style="verticalAlign=top;align=left;overflow=fill;fontSize=14;fontFamily=Helvetica;html=1;rounded=0;shadow=0;comic=0;labelBackgroundColor=none;strokeWidth=1;">
      <mxGeometry x="3861" y="1454" width="336" height="257" as="geometry" />
    </mxCell>
    <mxCell id="node104" parent="1" vertex="1" value="&lt;p style=&quot;margin:0px;margin-top:4px;text-align:center;&quot;&gt;&lt;i&gt;&amp;lt;&amp;lt;enumeration&amp;gt;&amp;gt;&lt;/i&gt;&lt;br/&gt;&lt;b&gt;WateringCan&lt;/b&gt;&lt;/p&gt;&lt;hr size=&quot;1&quot;/&gt;&lt;p style=&quot;margin:0 0 0 4px;line-height:1.6;&quot;&gt;+ IRIDIUM: &lt;br/&gt;- energyUse: Integer&lt;br/&gt;+ NORMAL: &lt;br/&gt;- level: Integer&lt;br/&gt;+ CUPPER: &lt;br/&gt;+ IRON: &lt;br/&gt;+ GOLD: &lt;br/&gt;- capacity: Integer&lt;/p&gt;&lt;hr size=&quot;1&quot;/&gt;&lt;p style=&quot;margin:0 0 0 4px;line-height:1.6;&quot;&gt;+ getCapacity(): Integer&lt;br/&gt;+ valueOf(String): WateringCan&lt;br/&gt;+ values(): WateringCan[]&lt;br/&gt;+ setCapacity(Integer): void&lt;br/&gt;+ getLevel(): Integer&lt;br/&gt;+ setLevel(Integer): void&lt;br/&gt;+ setEnergyUse(Integer): void&lt;br/&gt;+ getEnergyUse(): Integer&lt;/p&gt;" style="verticalAlign=top;align=left;overflow=fill;fontSize=14;fontFamily=Helvetica;html=1;rounded=0;shadow=0;comic=0;labelBackgroundColor=none;strokeWidth=1;">
      <mxGeometry x="6717" y="2246" width="284" height="527" as="geometry" />
    </mxCell>
    <mxCell id="node43" parent="1" vertex="1" value="&lt;p style=&quot;margin:0px;margin-top:4px;text-align:center;&quot;&gt;&lt;b&gt;Weather&lt;/b&gt;&lt;/p&gt;&lt;hr size=&quot;1&quot;/&gt;" style="verticalAlign=top;align=left;overflow=fill;fontSize=14;fontFamily=Helvetica;html=1;rounded=0;shadow=0;comic=0;labelBackgroundColor=none;strokeWidth=1;">
      <mxGeometry x="3583" y="2803" width="143" height="38" as="geometry" />
    </mxCell>
    <mxCell id="node70" parent="1" vertex="1" value="&lt;p style=&quot;margin:0px;margin-top:4px;text-align:center;&quot;&gt;&lt;b&gt;blackSmith&lt;/b&gt;&lt;/p&gt;&lt;hr size=&quot;1&quot;/&gt;" style="verticalAlign=top;align=left;overflow=fill;fontSize=14;fontFamily=Helvetica;html=1;rounded=0;shadow=0;comic=0;labelBackgroundColor=none;strokeWidth=1;">
      <mxGeometry x="3121" y="2300" width="167" height="38" as="geometry" />
    </mxCell>
    <mxCell id="node21" parent="1" vertex="1" value="&lt;p style=&quot;margin:0px;margin-top:4px;text-align:center;&quot;&gt;&lt;b&gt;gameMainMenu&lt;/b&gt;&lt;/p&gt;&lt;hr size=&quot;1&quot;/&gt;" style="verticalAlign=top;align=left;overflow=fill;fontSize=14;fontFamily=Helvetica;html=1;rounded=0;shadow=0;comic=0;labelBackgroundColor=none;strokeWidth=1;">
      <mxGeometry x="904" y="1197" width="215" height="38" as="geometry" />
    </mxCell>
    <mxCell id="edge38" edge="1" value="" parent="1" source="node95" target="node0" style="html=1;rounded=1;edgeStyle=orthogonalEdgeStyle;dashed=1;startArrow=none;endArrow=block;endSize=12;strokeColor=#008200;exitX=1.000;exitY=0.500;exitDx=0;exitDy=0;entryX=0.500;entryY=1.000;entryDx=0;entryDy=0;">
      <mxGeometry width="50" height="50" relative="1" as="geometry">
        <Array as="points">
          <mxPoint x="2820" y="2325" />
          <mxPoint x="2820" y="3033" />
          <mxPoint x="3213" y="3033" />
          <mxPoint x="3213" y="2421" />
          <mxPoint x="3549" y="2421" />
          <mxPoint x="3549" y="1935" />
          <mxPoint x="3194" y="1935" />
        </Array>
      </mxGeometry>
    </mxCell>
    <mxCell id="edge66" edge="1" value="" parent="1" source="node8" target="node100" style="html=1;rounded=1;edgeStyle=orthogonalEdgeStyle;dashed=0;startArrow=none;endArrow=block;endSize=12;strokeColor=#008200;exitX=0.000;exitY=0.500;exitDx=0;exitDy=0;entryX=1.000;entryY=0.503;entryDx=0;entryDy=0;">
      <mxGeometry width="50" height="50" relative="1" as="geometry">
        <Array as="points">
          <mxPoint x="616" y="2564" />
          <mxPoint x="616" y="1893" />
          <mxPoint x="253" y="1893" />
          <mxPoint x="253" y="1053" />
          <mxPoint x="2115" y="1053" />
          <mxPoint x="2115" y="2385" />
        </Array>
      </mxGeometry>
    </mxCell>
    <mxCell id="edge45" edge="1" value="" parent="1" source="node74" target="node28" style="html=1;rounded=1;edgeStyle=orthogonalEdgeStyle;dashed=1;startArrow=none;endArrow=block;endSize=12;strokeColor=#008200;exitX=1.000;exitY=0.500;exitDx=0;exitDy=0;entryX=1.000;entryY=0.500;entryDx=0;entryDy=0;">
      <mxGeometry width="50" height="50" relative="1" as="geometry">
        <Array as="points">
          <mxPoint x="4431" y="3882" />
          <mxPoint x="4431" y="2830" />
          <mxPoint x="4341" y="2830" />
          <mxPoint x="4341" y="2467" />
          <mxPoint x="3968" y="2467" />
          <mxPoint x="3968" y="2307" />
        </Array>
      </mxGeometry>
    </mxCell>
    <mxCell id="edge5" edge="1" value="" parent="1" source="node99" target="node28" style="html=1;rounded=1;edgeStyle=orthogonalEdgeStyle;dashed=1;startArrow=none;endArrow=block;endSize=12;strokeColor=#008200;exitX=1.000;exitY=0.500;exitDx=0;exitDy=0;entryX=1.000;entryY=0.500;entryDx=0;entryDy=0;">
      <mxGeometry width="50" height="50" relative="1" as="geometry">
        <Array as="points">
          <mxPoint x="4341" y="2881" />
          <mxPoint x="4341" y="2467" />
          <mxPoint x="3968" y="2467" />
          <mxPoint x="3968" y="2307" />
        </Array>
      </mxGeometry>
    </mxCell>
    <mxCell id="edge0" edge="1" value="" parent="1" source="node17" target="node10" style="html=1;rounded=1;edgeStyle=orthogonalEdgeStyle;dashed=1;startArrow=none;endArrow=block;endSize=12;strokeColor=#008200;exitX=1.000;exitY=0.478;exitDx=0;exitDy=0;entryX=0.500;entryY=1.000;entryDx=0;entryDy=0;">
      <mxGeometry width="50" height="50" relative="1" as="geometry">
        <Array as="points">
          <mxPoint x="927" y="2249" />
          <mxPoint x="927" y="1970" />
          <mxPoint x="1365" y="1970" />
          <mxPoint x="1365" y="1415" />
          <mxPoint x="3086" y="1415" />
        </Array>
      </mxGeometry>
    </mxCell>
    <mxCell id="edge62" edge="1" value="" parent="1" source="node17" target="node100" style="html=1;rounded=1;edgeStyle=orthogonalEdgeStyle;dashed=1;startArrow=none;endArrow=block;endSize=12;strokeColor=#008200;exitX=1.000;exitY=0.500;exitDx=0;exitDy=0;entryX=0.500;entryY=1.000;entryDx=0;entryDy=0;">
      <mxGeometry width="50" height="50" relative="1" as="geometry">
        <Array as="points">
          <mxPoint x="927" y="2264" />
          <mxPoint x="927" y="3007" />
          <mxPoint x="1503" y="3007" />
          <mxPoint x="1503" y="2903" />
          <mxPoint x="1529" y="2903" />
          <mxPoint x="1529" y="2675" />
          <mxPoint x="1994" y="2675" />
        </Array>
      </mxGeometry>
    </mxCell>
    <mxCell id="edge18" edge="1" value="" parent="1" source="node4" target="node7" style="html=1;rounded=1;edgeStyle=orthogonalEdgeStyle;dashed=1;startArrow=none;endArrow=block;endSize=12;strokeColor=#008200;exitX=0.500;exitY=1.000;exitDx=0;exitDy=0;entryX=1.000;entryY=0.500;entryDx=0;entryDy=0;">
      <mxGeometry width="50" height="50" relative="1" as="geometry">
        <Array as="points">
          <mxPoint x="5639" y="2596" />
          <mxPoint x="5440" y="2596" />
          <mxPoint x="5440" y="2815" />
          <mxPoint x="4356" y="2815" />
          <mxPoint x="4356" y="1923" />
        </Array>
      </mxGeometry>
    </mxCell>
    <mxCell id="edge22" edge="1" value="" parent="1" source="node34" target="node7" style="html=1;rounded=1;edgeStyle=orthogonalEdgeStyle;dashed=1;startArrow=none;endArrow=block;endSize=12;strokeColor=#008200;exitX=0.000;exitY=0.569;exitDx=0;exitDy=0;entryX=1.000;entryY=0.500;entryDx=0;entryDy=0;">
      <mxGeometry width="50" height="50" relative="1" as="geometry">
        <Array as="points">
          <mxPoint x="6079" y="2675" />
          <mxPoint x="6079" y="2596" />
          <mxPoint x="5440" y="2596" />
          <mxPoint x="5440" y="2815" />
          <mxPoint x="4356" y="2815" />
          <mxPoint x="4356" y="1923" />
        </Array>
      </mxGeometry>
    </mxCell>
    <mxCell id="edge71" edge="1" value="" parent="1" source="node35" target="node6" style="html=1;rounded=1;edgeStyle=orthogonalEdgeStyle;dashed=0;startArrow=none;endArrow=block;endSize=12;strokeColor=#000082;exitX=1.000;exitY=0.336;exitDx=0;exitDy=0;entryX=1.000;entryY=0.500;entryDx=0;entryDy=0;">
      <mxGeometry width="50" height="50" relative="1" as="geometry">
        <Array as="points">
          <mxPoint x="904" y="2802" />
          <mxPoint x="904" y="2837" />
        </Array>
      </mxGeometry>
    </mxCell>
    <mxCell id="edge29" edge="1" value="" parent="1" source="node50" target="node34" style="html=1;rounded=1;edgeStyle=orthogonalEdgeStyle;dashed=0;startArrow=none;endArrow=block;endSize=12;strokeColor=#000082;exitX=0.500;exitY=0.000;exitDx=0;exitDy=0;entryX=0.000;entryY=0.500;entryDx=0;entryDy=0;">
      <mxGeometry width="50" height="50" relative="1" as="geometry">
        <Array as="points">
          <mxPoint x="6508" y="2806" />
          <mxPoint x="6361" y="2806" />
          <mxPoint x="6361" y="2659" />
        </Array>
      </mxGeometry>
    </mxCell>
    <mxCell id="edge69" edge="1" value="" parent="1" source="node108" target="node6" style="html=1;rounded=1;edgeStyle=orthogonalEdgeStyle;dashed=0;startArrow=none;endArrow=block;endSize=12;strokeColor=#000082;exitX=0.500;exitY=1.000;exitDx=0;exitDy=0;entryX=1.000;entryY=0.500;entryDx=0;entryDy=0;">
      <mxGeometry width="50" height="50" relative="1" as="geometry">
        <Array as="points">
          <mxPoint x="2148" y="3276" />
          <mxPoint x="1540" y="3276" />
          <mxPoint x="1540" y="3181" />
          <mxPoint x="642" y="3181" />
          <mxPoint x="642" y="2872" />
          <mxPoint x="904" y="2872" />
          <mxPoint x="904" y="2837" />
        </Array>
      </mxGeometry>
    </mxCell>
    <mxCell id="edge35" edge="1" value="" parent="1" source="node11" target="node78" style="html=1;rounded=1;edgeStyle=orthogonalEdgeStyle;dashed=0;startArrow=none;endArrow=block;endSize=12;strokeColor=#000082;exitX=0.000;exitY=0.500;exitDx=0;exitDy=0;entryX=0.500;entryY=0.000;entryDx=0;entryDy=0;">
      <mxGeometry width="50" height="50" relative="1" as="geometry">
        <Array as="points">
          <mxPoint x="4896" y="3866" />
          <mxPoint x="4896" y="2840" />
          <mxPoint x="4454" y="2840" />
          <mxPoint x="4454" y="3526" />
          <mxPoint x="3532" y="3526" />
          <mxPoint x="3532" y="2361" />
          <mxPoint x="3026" y="2361" />
        </Array>
      </mxGeometry>
    </mxCell>
    <mxCell id="edge53" edge="1" value="" parent="1" source="node89" target="node32" style="html=1;rounded=1;edgeStyle=orthogonalEdgeStyle;dashed=0;startArrow=none;endArrow=block;endSize=12;strokeColor=#000082;exitX=0.000;exitY=0.500;exitDx=0;exitDy=0;entryX=1.000;entryY=0.071;entryDx=0;entryDy=0;">
      <mxGeometry width="50" height="50" relative="1" as="geometry">
        <Array as="points">
          <mxPoint x="601" y="1445" />
          <mxPoint x="601" y="1172" />
        </Array>
      </mxGeometry>
    </mxCell>
    <mxCell id="edge17" edge="1" value="" parent="1" source="node45" target="node6" style="html=1;rounded=1;edgeStyle=orthogonalEdgeStyle;dashed=0;startArrow=none;endArrow=block;endSize=12;strokeColor=#000082;exitX=0.500;exitY=1.000;exitDx=0;exitDy=0;entryX=1.000;entryY=0.500;entryDx=0;entryDy=0;">
      <mxGeometry width="50" height="50" relative="1" as="geometry">
        <Array as="points">
          <mxPoint x="729" y="3181" />
          <mxPoint x="642" y="3181" />
          <mxPoint x="642" y="2872" />
          <mxPoint x="904" y="2872" />
          <mxPoint x="904" y="2837" />
        </Array>
      </mxGeometry>
    </mxCell>
    <mxCell id="edge68" edge="1" value="" parent="1" source="node67" target="node28" style="html=1;rounded=1;edgeStyle=orthogonalEdgeStyle;dashed=1;startArrow=none;endArrow=block;endSize=12;strokeColor=#008200;exitX=0.721;exitY=0.000;exitDx=0;exitDy=0;entryX=1.000;entryY=0.500;entryDx=0;entryDy=0;">
      <mxGeometry width="50" height="50" relative="1" as="geometry">
        <Array as="points">
          <mxPoint x="2412" y="881" />
          <mxPoint x="3824" y="881" />
          <mxPoint x="3824" y="2307" />
        </Array>
      </mxGeometry>
    </mxCell>
    <mxCell id="edge27" edge="1" value="" parent="1" source="node67" target="node100" style="html=1;rounded=1;edgeStyle=orthogonalEdgeStyle;dashed=1;startArrow=none;endArrow=block;endSize=12;strokeColor=#008200;exitX=0.500;exitY=1.000;exitDx=0;exitDy=0;entryX=0.500;entryY=1.000;entryDx=0;entryDy=0;">
      <mxGeometry width="50" height="50" relative="1" as="geometry">
        <Array as="points">
          <mxPoint x="2347" y="2675" />
          <mxPoint x="1994" y="2675" />
        </Array>
      </mxGeometry>
    </mxCell>
    <mxCell id="edge46" edge="1" value="" parent="1" source="node84" target="node32" style="html=1;rounded=1;edgeStyle=orthogonalEdgeStyle;dashed=0;startArrow=none;endArrow=block;endSize=12;strokeColor=#000082;exitX=1.000;exitY=0.500;exitDx=0;exitDy=0;entryX=1.000;entryY=0.071;entryDx=0;entryDy=0;">
      <mxGeometry width="50" height="50" relative="1" as="geometry">
        <Array as="points">
          <mxPoint x="1594" y="1739" />
          <mxPoint x="1594" y="1157" />
          <mxPoint x="601" y="1157" />
          <mxPoint x="601" y="1172" />
        </Array>
      </mxGeometry>
    </mxCell>
    <mxCell id="edge51" edge="1" value="" parent="1" source="node55" target="node60" style="html=1;rounded=1;edgeStyle=orthogonalEdgeStyle;dashed=0;startArrow=none;endArrow=block;endSize=12;strokeColor=#000082;exitX=0.431;exitY=1.000;exitDx=0;exitDy=0;entryX=1.000;entryY=0.500;entryDx=0;entryDy=0;">
      <mxGeometry width="50" height="50" relative="1" as="geometry">
        <Array as="points">
          <mxPoint x="5333" y="3436" />
        </Array>
      </mxGeometry>
    </mxCell>
    <mxCell id="edge74" edge="1" value="" parent="1" source="node55" target="node0" style="html=1;rounded=1;edgeStyle=orthogonalEdgeStyle;dashed=1;startArrow=none;endArrow=block;endSize=12;strokeColor=#008200;exitX=0.500;exitY=1.000;exitDx=0;exitDy=0;entryX=0.500;entryY=1.000;entryDx=0;entryDy=0;">
      <mxGeometry width="50" height="50" relative="1" as="geometry">
        <Array as="points">
          <mxPoint x="5348" y="4032" />
          <mxPoint x="4300" y="4032" />
          <mxPoint x="4300" y="3770" />
          <mxPoint x="3549" y="3770" />
          <mxPoint x="3549" y="1935" />
          <mxPoint x="3194" y="1935" />
        </Array>
      </mxGeometry>
    </mxCell>
    <mxCell id="edge50" edge="1" value="" parent="1" source="node25" target="node28" style="html=1;rounded=1;edgeStyle=orthogonalEdgeStyle;dashed=1;startArrow=none;endArrow=block;endSize=12;strokeColor=#008200;exitX=1.000;exitY=0.500;exitDx=0;exitDy=0;entryX=1.000;entryY=0.500;entryDx=0;entryDy=0;">
      <mxGeometry width="50" height="50" relative="1" as="geometry">
        <Array as="points">
          <mxPoint x="4431" y="5225" />
          <mxPoint x="4431" y="2830" />
          <mxPoint x="4341" y="2830" />
          <mxPoint x="4341" y="2467" />
          <mxPoint x="3968" y="2467" />
          <mxPoint x="3968" y="2307" />
        </Array>
      </mxGeometry>
    </mxCell>
    <mxCell id="edge31" edge="1" value="" parent="1" source="node12" target="node34" style="html=1;rounded=1;edgeStyle=orthogonalEdgeStyle;dashed=0;startArrow=none;endArrow=block;endSize=12;strokeColor=#000082;exitX=1.000;exitY=0.500;exitDx=0;exitDy=0;entryX=0.000;entryY=0.500;entryDx=0;entryDy=0;">
      <mxGeometry width="50" height="50" relative="1" as="geometry">
        <Array as="points">
          <mxPoint x="6361" y="2821" />
          <mxPoint x="6361" y="2659" />
        </Array>
      </mxGeometry>
    </mxCell>
    <mxCell id="edge21" edge="1" value="" parent="1" source="node61" target="node32" style="html=1;rounded=1;edgeStyle=orthogonalEdgeStyle;dashed=0;startArrow=none;endArrow=block;endSize=12;strokeColor=#000082;exitX=0.000;exitY=0.500;exitDx=0;exitDy=0;entryX=1.000;entryY=0.071;entryDx=0;entryDy=0;">
      <mxGeometry width="50" height="50" relative="1" as="geometry">
        <Array as="points">
          <mxPoint x="1594" y="1922" />
          <mxPoint x="1594" y="1157" />
          <mxPoint x="601" y="1157" />
          <mxPoint x="601" y="1172" />
        </Array>
      </mxGeometry>
    </mxCell>
    <mxCell id="edge57" edge="1" value="" parent="1" source="node20" target="node32" style="html=1;rounded=1;edgeStyle=orthogonalEdgeStyle;dashed=0;startArrow=none;endArrow=block;endSize=12;strokeColor=#000082;exitX=1.000;exitY=0.500;exitDx=0;exitDy=0;entryX=1.000;entryY=0.071;entryDx=0;entryDy=0;">
      <mxGeometry width="50" height="50" relative="1" as="geometry">
        <Array as="points">
          <mxPoint x="601" y="1299" />
          <mxPoint x="601" y="1172" />
        </Array>
      </mxGeometry>
    </mxCell>
    <mxCell id="edge64" edge="1" value="" parent="1" source="node93" target="node78" style="html=1;rounded=1;edgeStyle=orthogonalEdgeStyle;dashed=0;startArrow=none;endArrow=block;endSize=12;strokeColor=#000082;exitX=0.500;exitY=0.000;exitDx=0;exitDy=0;entryX=0.500;entryY=0.000;entryDx=0;entryDy=0;">
      <mxGeometry width="50" height="50" relative="1" as="geometry">
        <Array as="points">
          <mxPoint x="2926" y="2361" />
          <mxPoint x="3026" y="2361" />
        </Array>
      </mxGeometry>
    </mxCell>
    <mxCell id="edge41" edge="1" value="" parent="1" source="node56" target="node7" style="html=1;rounded=1;edgeStyle=orthogonalEdgeStyle;dashed=1;startArrow=none;endArrow=block;endSize=12;strokeColor=#008200;exitX=0.000;exitY=0.258;exitDx=0;exitDy=0;entryX=1.000;entryY=0.500;entryDx=0;entryDy=0;">
      <mxGeometry width="50" height="50" relative="1" as="geometry">
        <Array as="points">
          <mxPoint x="7190" y="2487" />
          <mxPoint x="7190" y="2219" />
          <mxPoint x="6079" y="2219" />
          <mxPoint x="6079" y="2596" />
          <mxPoint x="5440" y="2596" />
          <mxPoint x="5440" y="2815" />
          <mxPoint x="4356" y="2815" />
          <mxPoint x="4356" y="1923" />
        </Array>
      </mxGeometry>
    </mxCell>
    <mxCell id="edge30" edge="1" value="" parent="1" source="node82" target="node10" style="html=1;rounded=1;edgeStyle=orthogonalEdgeStyle;dashed=1;startArrow=none;endArrow=block;endSize=12;strokeColor=#008200;exitX=0.500;exitY=0.000;exitDx=0;exitDy=0;entryX=0.500;entryY=1.000;entryDx=0;entryDy=0;">
      <mxGeometry width="50" height="50" relative="1" as="geometry">
        <Array as="points">
          <mxPoint x="1907" y="1970" />
          <mxPoint x="1365" y="1970" />
          <mxPoint x="1365" y="1415" />
          <mxPoint x="3086" y="1415" />
        </Array>
      </mxGeometry>
    </mxCell>
    <mxCell id="edge15" edge="1" value="" parent="1" source="node53" target="node100" style="html=1;rounded=1;edgeStyle=orthogonalEdgeStyle;dashed=1;startArrow=none;endArrow=block;endSize=12;strokeColor=#008200;exitX=0.500;exitY=0.000;exitDx=0;exitDy=0;entryX=0.500;entryY=1.000;entryDx=0;entryDy=0;">
      <mxGeometry width="50" height="50" relative="1" as="geometry">
        <Array as="points">
          <mxPoint x="929" y="3007" />
          <mxPoint x="1503" y="3007" />
          <mxPoint x="1503" y="2903" />
          <mxPoint x="1529" y="2903" />
          <mxPoint x="1529" y="2675" />
          <mxPoint x="1994" y="2675" />
        </Array>
      </mxGeometry>
    </mxCell>
    <mxCell id="edge47" edge="1" value="" parent="1" source="node49" target="node32" style="html=1;rounded=1;edgeStyle=orthogonalEdgeStyle;dashed=0;startArrow=none;endArrow=block;endSize=12;strokeColor=#000082;exitX=1.000;exitY=0.500;exitDx=0;exitDy=0;entryX=1.000;entryY=0.071;entryDx=0;entryDy=0;">
      <mxGeometry width="50" height="50" relative="1" as="geometry">
        <Array as="points">
          <mxPoint x="1594" y="1214" />
          <mxPoint x="1594" y="1157" />
          <mxPoint x="601" y="1157" />
          <mxPoint x="601" y="1172" />
        </Array>
      </mxGeometry>
    </mxCell>
    <mxCell id="edge6" edge="1" value="" parent="1" source="node44" target="node60" style="html=1;rounded=1;edgeStyle=orthogonalEdgeStyle;dashed=0;startArrow=none;endArrow=block;endSize=12;strokeColor=#000082;exitX=0.500;exitY=0.000;exitDx=0;exitDy=0;entryX=1.000;entryY=0.500;entryDx=0;entryDy=0;">
      <mxGeometry width="50" height="50" relative="1" as="geometry">
        <Array as="points">
          <mxPoint x="5903" y="2581" />
          <mxPoint x="5333" y="2581" />
          <mxPoint x="5333" y="3436" />
        </Array>
      </mxGeometry>
    </mxCell>
    <mxCell id="edge73" edge="1" value="" parent="1" source="node32" target="node80" style="html=1;rounded=1;edgeStyle=orthogonalEdgeStyle;dashed=0;startArrow=none;endArrow=block;endSize=12;strokeColor=#000082;exitX=1.000;exitY=0.500;exitDx=0;exitDy=0;entryX=0.500;entryY=1.000;entryDx=0;entryDy=0;">
      <mxGeometry width="50" height="50" relative="1" as="geometry">
        <Array as="points">
          <mxPoint x="616" y="1187" />
          <mxPoint x="616" y="1257" />
          <mxPoint x="653" y="1257" />
        </Array>
      </mxGeometry>
    </mxCell>
    <mxCell id="edge2" edge="1" value="" parent="1" source="node37" target="node73" style="html=1;rounded=1;edgeStyle=orthogonalEdgeStyle;dashed=0;startArrow=none;endArrow=block;endSize=12;strokeColor=#000082;exitX=0.500;exitY=0.000;exitDx=0;exitDy=0;entryX=1.000;entryY=0.500;entryDx=0;entryDy=0;">
      <mxGeometry width="50" height="50" relative="1" as="geometry">
        <Array as="points">
          <mxPoint x="7025" y="1106" />
          <mxPoint x="5959" y="1106" />
          <mxPoint x="5959" y="1869" />
        </Array>
      </mxGeometry>
    </mxCell>
    <mxCell id="edge61" edge="1" value="" parent="1" source="node52" target="node6" style="html=1;rounded=1;edgeStyle=orthogonalEdgeStyle;dashed=0;startArrow=none;endArrow=block;endSize=12;strokeColor=#000082;exitX=0.500;exitY=1.001;exitDx=0;exitDy=0;entryX=1.000;entryY=0.500;entryDx=0;entryDy=0;">
      <mxGeometry width="50" height="50" relative="1" as="geometry">
        <Array as="points">
          <mxPoint x="2384" y="3276" />
          <mxPoint x="1540" y="3276" />
          <mxPoint x="1540" y="3181" />
          <mxPoint x="642" y="3181" />
          <mxPoint x="642" y="2872" />
          <mxPoint x="904" y="2872" />
          <mxPoint x="904" y="2837" />
        </Array>
      </mxGeometry>
    </mxCell>
    <mxCell id="edge28" edge="1" value="" parent="1" source="node60" target="node28" style="html=1;rounded=1;edgeStyle=orthogonalEdgeStyle;dashed=1;startArrow=none;endArrow=block;endSize=12;strokeColor=#008200;exitX=0.000;exitY=0.590;exitDx=0;exitDy=0;entryX=1.000;entryY=0.500;entryDx=0;entryDy=0;">
      <mxGeometry width="50" height="50" relative="1" as="geometry">
        <Array as="points">
          <mxPoint x="4431" y="3541" />
          <mxPoint x="4431" y="2830" />
          <mxPoint x="4341" y="2830" />
          <mxPoint x="4341" y="2467" />
          <mxPoint x="3968" y="2467" />
          <mxPoint x="3968" y="2307" />
        </Array>
      </mxGeometry>
    </mxCell>
    <mxCell id="edge3" edge="1" value="" parent="1" source="node81" target="node28" style="html=1;rounded=1;edgeStyle=orthogonalEdgeStyle;dashed=1;startArrow=none;endArrow=block;endSize=12;strokeColor=#008200;exitX=1.000;exitY=0.500;exitDx=0;exitDy=0;entryX=1.000;entryY=0.500;entryDx=0;entryDy=0;">
      <mxGeometry width="50" height="50" relative="1" as="geometry">
        <Array as="points">
          <mxPoint x="3968" y="3263" />
          <mxPoint x="3968" y="2307" />
        </Array>
      </mxGeometry>
    </mxCell>
    <mxCell id="edge42" edge="1" value="" parent="1" source="node94" target="node7" style="html=1;rounded=1;edgeStyle=orthogonalEdgeStyle;dashed=1;startArrow=none;endArrow=block;endSize=12;strokeColor=#008200;exitX=0.000;exitY=0.500;exitDx=0;exitDy=0;entryX=1.000;entryY=0.500;entryDx=0;entryDy=0;">
      <mxGeometry width="50" height="50" relative="1" as="geometry">
        <Array as="points">
          <mxPoint x="6079" y="2469" />
          <mxPoint x="6079" y="2596" />
          <mxPoint x="5440" y="2596" />
          <mxPoint x="5440" y="2815" />
          <mxPoint x="4356" y="2815" />
          <mxPoint x="4356" y="1923" />
        </Array>
      </mxGeometry>
    </mxCell>
    <mxCell id="edge34" edge="1" value="" parent="1" source="node42" target="node6" style="html=1;rounded=1;edgeStyle=orthogonalEdgeStyle;dashed=0;startArrow=none;endArrow=block;endSize=12;strokeColor=#000082;exitX=0.500;exitY=0.000;exitDx=0;exitDy=0;entryX=1.000;entryY=0.500;entryDx=0;entryDy=0;">
      <mxGeometry width="50" height="50" relative="1" as="geometry">
        <Array as="points">
          <mxPoint x="998" y="3181" />
          <mxPoint x="642" y="3181" />
          <mxPoint x="642" y="2872" />
          <mxPoint x="904" y="2872" />
          <mxPoint x="904" y="2837" />
        </Array>
      </mxGeometry>
    </mxCell>
    <mxCell id="edge10" edge="1" value="" parent="1" source="node2" target="node78" style="html=1;rounded=1;edgeStyle=orthogonalEdgeStyle;dashed=0;startArrow=none;endArrow=block;endSize=12;strokeColor=#000082;exitX=0.500;exitY=1.001;exitDx=0;exitDy=0;entryX=0.500;entryY=0.000;entryDx=0;entryDy=0;">
      <mxGeometry width="50" height="50" relative="1" as="geometry">
        <Array as="points">
          <mxPoint x="3004" y="2361" />
          <mxPoint x="3026" y="2361" />
        </Array>
      </mxGeometry>
    </mxCell>
    <mxCell id="edge48" edge="1" value="" parent="1" source="node59" target="node100" style="html=1;rounded=1;edgeStyle=orthogonalEdgeStyle;dashed=1;startArrow=none;endArrow=block;endSize=12;strokeColor=#008200;exitX=0.500;exitY=1.001;exitDx=0;exitDy=0;entryX=0.500;entryY=1.000;entryDx=0;entryDy=0;">
      <mxGeometry width="50" height="50" relative="1" as="geometry">
        <Array as="points">
          <mxPoint x="1426" y="3007" />
          <mxPoint x="1503" y="3007" />
          <mxPoint x="1503" y="2903" />
          <mxPoint x="1529" y="2903" />
          <mxPoint x="1529" y="2675" />
          <mxPoint x="1994" y="2675" />
        </Array>
      </mxGeometry>
    </mxCell>
    <mxCell id="edge26" edge="1" value="" parent="1" source="node9" target="node73" style="html=1;rounded=1;edgeStyle=orthogonalEdgeStyle;dashed=0;startArrow=none;endArrow=block;endSize=12;strokeColor=#000082;exitX=1.000;exitY=0.273;exitDx=0;exitDy=0;entryX=1.000;entryY=0.500;entryDx=0;entryDy=0;">
      <mxGeometry width="50" height="50" relative="1" as="geometry">
        <Array as="points">
          <mxPoint x="4896" y="1072" />
          <mxPoint x="4896" y="2128" />
          <mxPoint x="5959" y="2128" />
          <mxPoint x="5959" y="1869" />
        </Array>
      </mxGeometry>
    </mxCell>
    <mxCell id="edge52" edge="1" value="" parent="1" source="node85" target="node80" style="html=1;rounded=1;edgeStyle=orthogonalEdgeStyle;dashed=0;startArrow=none;endArrow=block;endSize=12;strokeColor=#000082;exitX=0.500;exitY=0.001;exitDx=0;exitDy=0;entryX=0.500;entryY=1.000;entryDx=0;entryDy=0;">
      <mxGeometry width="50" height="50" relative="1" as="geometry">
        <Array as="points">
          <mxPoint x="1463" y="1257" />
          <mxPoint x="653" y="1257" />
        </Array>
      </mxGeometry>
    </mxCell>
    <mxCell id="edge43" edge="1" value="" parent="1" source="node92" target="node28" style="html=1;rounded=1;edgeStyle=orthogonalEdgeStyle;dashed=1;startArrow=none;endArrow=block;endSize=12;strokeColor=#008200;exitX=0.000;exitY=0.500;exitDx=0;exitDy=0;entryX=1.000;entryY=0.500;entryDx=0;entryDy=0;">
      <mxGeometry width="50" height="50" relative="1" as="geometry">
        <Array as="points">
          <mxPoint x="4341" y="2084" />
          <mxPoint x="4341" y="2467" />
          <mxPoint x="3968" y="2467" />
          <mxPoint x="3968" y="2307" />
        </Array>
      </mxGeometry>
    </mxCell>
    <mxCell id="edge54" edge="1" value="" parent="1" source="node87" target="node80" style="html=1;rounded=1;edgeStyle=orthogonalEdgeStyle;dashed=0;startArrow=none;endArrow=block;endSize=12;strokeColor=#000082;exitX=0.000;exitY=0.500;exitDx=0;exitDy=0;entryX=0.500;entryY=1.000;entryDx=0;entryDy=0;">
      <mxGeometry width="50" height="50" relative="1" as="geometry">
        <Array as="points">
          <mxPoint x="616" y="1305" />
          <mxPoint x="616" y="1257" />
          <mxPoint x="653" y="1257" />
        </Array>
      </mxGeometry>
    </mxCell>
    <mxCell id="edge12" edge="1" value="" parent="1" source="node19" target="node73" style="html=1;rounded=1;edgeStyle=orthogonalEdgeStyle;dashed=0;startArrow=none;endArrow=block;endSize=12;strokeColor=#000082;exitX=1.000;exitY=0.500;exitDx=0;exitDy=0;entryX=1.000;entryY=0.500;entryDx=0;entryDy=0;">
      <mxGeometry width="50" height="50" relative="1" as="geometry">
        <Array as="points">
          <mxPoint x="5959" y="2079" />
          <mxPoint x="5959" y="1869" />
        </Array>
      </mxGeometry>
    </mxCell>
    <mxCell id="edge70" edge="1" value="" parent="1" source="node31" target="node78" style="html=1;rounded=1;edgeStyle=orthogonalEdgeStyle;dashed=0;startArrow=none;endArrow=block;endSize=12;strokeColor=#000082;exitX=0.000;exitY=0.500;exitDx=0;exitDy=0;entryX=0.500;entryY=0.000;entryDx=0;entryDy=0;">
      <mxGeometry width="50" height="50" relative="1" as="geometry">
        <Array as="points">
          <mxPoint x="3532" y="3345" />
          <mxPoint x="3532" y="2361" />
          <mxPoint x="3026" y="2361" />
        </Array>
      </mxGeometry>
    </mxCell>
    <mxCell id="edge9" edge="1" value="" parent="1" source="node97" target="node7" style="html=1;rounded=1;edgeStyle=orthogonalEdgeStyle;dashed=1;startArrow=none;endArrow=block;endSize=12;strokeColor=#008200;exitX=0.525;exitY=0.000;exitDx=0;exitDy=0;entryX=1.000;entryY=0.500;entryDx=0;entryDy=0;">
      <mxGeometry width="50" height="50" relative="1" as="geometry">
        <Array as="points">
          <mxPoint x="7190" y="2219" />
          <mxPoint x="6079" y="2219" />
          <mxPoint x="6079" y="2596" />
          <mxPoint x="5440" y="2596" />
          <mxPoint x="5440" y="2815" />
          <mxPoint x="4356" y="2815" />
          <mxPoint x="4356" y="1923" />
        </Array>
      </mxGeometry>
    </mxCell>
    <mxCell id="edge11" edge="1" value="" parent="1" source="node106" target="node0" style="html=1;rounded=1;edgeStyle=orthogonalEdgeStyle;dashed=1;startArrow=none;endArrow=block;endSize=12;strokeColor=#008200;exitX=0.000;exitY=0.500;exitDx=0;exitDy=0;entryX=0.500;entryY=1.000;entryDx=0;entryDy=0;">
      <mxGeometry width="50" height="50" relative="1" as="geometry">
        <Array as="points">
          <mxPoint x="3549" y="3715" />
          <mxPoint x="3549" y="1935" />
          <mxPoint x="3194" y="1935" />
        </Array>
      </mxGeometry>
    </mxCell>
    <mxCell id="edge67" edge="1" value="" parent="1" source="node96" target="node0" style="html=1;rounded=1;edgeStyle=orthogonalEdgeStyle;dashed=1;startArrow=none;endArrow=block;endSize=12;strokeColor=#008200;exitX=1.000;exitY=0.500;exitDx=0;exitDy=0;entryX=0.500;entryY=1.000;entryDx=0;entryDy=0;">
      <mxGeometry width="50" height="50" relative="1" as="geometry">
        <Array as="points">
          <mxPoint x="3549" y="1990" />
          <mxPoint x="3549" y="1935" />
          <mxPoint x="3194" y="1935" />
        </Array>
      </mxGeometry>
    </mxCell>
    <mxCell id="edge36" edge="1" value="" parent="1" source="node41" target="node8" style="html=1;rounded=1;edgeStyle=orthogonalEdgeStyle;dashed=1;startArrow=none;endArrow=block;endSize=12;strokeColor=#008200;exitX=0.500;exitY=0.000;exitDx=0;exitDy=0;entryX=0.500;entryY=1.000;entryDx=0;entryDy=0;">
      <mxGeometry width="50" height="50" relative="1" as="geometry">
        <Array as="points">
          <mxPoint x="416" y="2633" />
          <mxPoint x="716" y="2633" />
        </Array>
      </mxGeometry>
    </mxCell>
    <mxCell id="edge44" edge="1" value="" parent="1" source="node79" target="node6" style="html=1;rounded=1;edgeStyle=orthogonalEdgeStyle;dashed=0;startArrow=none;endArrow=block;endSize=12;strokeColor=#000082;exitX=0.500;exitY=0.000;exitDx=0;exitDy=0;entryX=1.000;entryY=0.500;entryDx=0;entryDy=0;">
      <mxGeometry width="50" height="50" relative="1" as="geometry">
        <Array as="points">
          <mxPoint x="1345" y="3181" />
          <mxPoint x="642" y="3181" />
          <mxPoint x="642" y="2872" />
          <mxPoint x="904" y="2872" />
          <mxPoint x="904" y="2837" />
        </Array>
      </mxGeometry>
    </mxCell>
    <mxCell id="edge59" edge="1" value="" parent="1" source="node107" target="node34" style="html=1;rounded=1;edgeStyle=orthogonalEdgeStyle;dashed=0;startArrow=none;endArrow=block;endSize=12;strokeColor=#000082;exitX=0.500;exitY=0.000;exitDx=0;exitDy=0;entryX=0.000;entryY=0.500;entryDx=0;entryDy=0;">
      <mxGeometry width="50" height="50" relative="1" as="geometry">
        <Array as="points">
          <mxPoint x="6817" y="2806" />
          <mxPoint x="6361" y="2806" />
          <mxPoint x="6361" y="2659" />
        </Array>
      </mxGeometry>
    </mxCell>
    <mxCell id="edge76" edge="1" value="" parent="1" source="node71" target="node7" style="html=1;rounded=1;edgeStyle=orthogonalEdgeStyle;dashed=1;startArrow=none;endArrow=block;endSize=12;strokeColor=#008200;exitX=1.000;exitY=0.500;exitDx=0;exitDy=0;entryX=1.000;entryY=0.500;entryDx=0;entryDy=0;">
      <mxGeometry width="50" height="50" relative="1" as="geometry">
        <Array as="points">
          <mxPoint x="6079" y="2386" />
          <mxPoint x="6079" y="2596" />
          <mxPoint x="5440" y="2596" />
          <mxPoint x="5440" y="2815" />
          <mxPoint x="4356" y="2815" />
          <mxPoint x="4356" y="1923" />
        </Array>
      </mxGeometry>
    </mxCell>
    <mxCell id="edge63" edge="1" value="" parent="1" source="node76" target="node78" style="html=1;rounded=1;edgeStyle=orthogonalEdgeStyle;dashed=0;startArrow=none;endArrow=block;endSize=12;strokeColor=#000082;exitX=0.000;exitY=0.500;exitDx=0;exitDy=0;entryX=0.500;entryY=0.000;entryDx=0;entryDy=0;">
      <mxGeometry width="50" height="50" relative="1" as="geometry">
        <Array as="points">
          <mxPoint x="3532" y="3491" />
          <mxPoint x="3532" y="2361" />
          <mxPoint x="3026" y="2361" />
        </Array>
      </mxGeometry>
    </mxCell>
    <mxCell id="edge4" edge="1" value="" parent="1" source="node47" target="node8" style="html=1;rounded=1;edgeStyle=orthogonalEdgeStyle;dashed=1;startArrow=none;endArrow=block;endSize=12;strokeColor=#008200;exitX=0.500;exitY=0.000;exitDx=0;exitDy=0;entryX=0.500;entryY=1.000;entryDx=0;entryDy=0;">
      <mxGeometry width="50" height="50" relative="1" as="geometry">
        <Array as="points">
          <mxPoint x="16" y="2633" />
          <mxPoint x="716" y="2633" />
        </Array>
      </mxGeometry>
    </mxCell>
    <mxCell id="edge13" edge="1" value="" parent="1" source="node28" target="node10" style="html=1;rounded=1;edgeStyle=orthogonalEdgeStyle;dashed=0;startArrow=none;endArrow=block;endSize=12;strokeColor=#008200;exitX=0.500;exitY=0.001;exitDx=0;exitDy=0;entryX=0.614;entryY=1.000;entryDx=0;entryDy=0;">
      <mxGeometry width="50" height="50" relative="1" as="geometry">
        <Array as="points">
          <mxPoint x="3723" y="2256" />
          <mxPoint x="3672" y="2256" />
          <mxPoint x="3672" y="1914" />
          <mxPoint x="3101" y="1914" />
        </Array>
      </mxGeometry>
    </mxCell>
    <mxCell id="edge19" edge="1" value="" parent="1" source="node68" target="node73" style="html=1;rounded=1;edgeStyle=orthogonalEdgeStyle;dashed=0;startArrow=none;endArrow=block;endSize=12;strokeColor=#000082;exitX=0.000;exitY=0.500;exitDx=0;exitDy=0;entryX=1.000;entryY=0.500;entryDx=0;entryDy=0;">
      <mxGeometry width="50" height="50" relative="1" as="geometry">
        <Array as="points">
          <mxPoint x="5959" y="2173" />
          <mxPoint x="5959" y="1869" />
        </Array>
      </mxGeometry>
    </mxCell>
    <mxCell id="edge20" edge="1" value="" parent="1" source="node39" target="node80" style="html=1;rounded=1;edgeStyle=orthogonalEdgeStyle;dashed=0;startArrow=none;endArrow=block;endSize=12;strokeColor=#000082;exitX=0.500;exitY=0.001;exitDx=0;exitDy=0;entryX=0.500;entryY=1.000;entryDx=0;entryDy=0;">
      <mxGeometry width="50" height="50" relative="1" as="geometry">
        <Array as="points">
          <mxPoint x="1732" y="1257" />
          <mxPoint x="653" y="1257" />
        </Array>
      </mxGeometry>
    </mxCell>
    <mxCell id="edge39" edge="1" value="" parent="1" source="node77" target="node100" style="html=1;rounded=1;edgeStyle=orthogonalEdgeStyle;dashed=1;startArrow=none;endArrow=block;endSize=12;strokeColor=#008200;exitX=0.500;exitY=0.000;exitDx=0;exitDy=0;entryX=0.500;entryY=1.000;entryDx=0;entryDy=0;">
      <mxGeometry width="50" height="50" relative="1" as="geometry">
        <Array as="points">
          <mxPoint x="1319" y="3007" />
          <mxPoint x="1503" y="3007" />
          <mxPoint x="1503" y="2903" />
          <mxPoint x="1529" y="2903" />
          <mxPoint x="1529" y="2675" />
          <mxPoint x="1994" y="2675" />
        </Array>
      </mxGeometry>
    </mxCell>
    <mxCell id="edge37" edge="1" value="" parent="1" source="node103" target="node10" style="html=1;rounded=1;edgeStyle=orthogonalEdgeStyle;dashed=1;startArrow=none;endArrow=block;endSize=12;strokeColor=#008200;exitX=0.500;exitY=0.000;exitDx=0;exitDy=0;entryX=0.500;entryY=1.000;entryDx=0;entryDy=0;">
      <mxGeometry width="50" height="50" relative="1" as="geometry">
        <Array as="points">
          <mxPoint x="75" y="866" />
          <mxPoint x="2260" y="866" />
          <mxPoint x="2260" y="1415" />
          <mxPoint x="3086" y="1415" />
        </Array>
      </mxGeometry>
    </mxCell>
    <mxCell id="edge8" edge="1" value="" parent="1" source="node57" target="node7" style="html=1;rounded=1;edgeStyle=orthogonalEdgeStyle;dashed=1;startArrow=none;endArrow=block;endSize=12;strokeColor=#008200;exitX=0.056;exitY=1.000;exitDx=0;exitDy=0;entryX=1.000;entryY=0.500;entryDx=0;entryDy=0;">
      <mxGeometry width="50" height="50" relative="1" as="geometry">
        <Array as="points">
          <mxPoint x="5222" y="2596" />
          <mxPoint x="5440" y="2596" />
          <mxPoint x="5440" y="2815" />
          <mxPoint x="4356" y="2815" />
          <mxPoint x="4356" y="1923" />
        </Array>
      </mxGeometry>
    </mxCell>
    <mxCell id="edge65" edge="1" value="" parent="1" source="node105" target="node0" style="html=1;rounded=1;edgeStyle=orthogonalEdgeStyle;dashed=1;startArrow=none;endArrow=block;endSize=12;strokeColor=#008200;exitX=1.000;exitY=0.500;exitDx=0;exitDy=0;entryX=0.500;entryY=1.000;entryDx=0;entryDy=0;">
      <mxGeometry width="50" height="50" relative="1" as="geometry">
        <Array as="points">
          <mxPoint x="2820" y="2560" />
          <mxPoint x="2820" y="3033" />
          <mxPoint x="3213" y="3033" />
          <mxPoint x="3213" y="2421" />
          <mxPoint x="3549" y="2421" />
          <mxPoint x="3549" y="1935" />
          <mxPoint x="3194" y="1935" />
        </Array>
      </mxGeometry>
    </mxCell>
    <mxCell id="edge55" edge="1" value="" parent="1" source="node105" target="node100" style="html=1;rounded=1;edgeStyle=orthogonalEdgeStyle;dashed=1;startArrow=none;endArrow=block;endSize=12;strokeColor=#008200;exitX=0.500;exitY=1.000;exitDx=0;exitDy=0;entryX=0.500;entryY=1.000;entryDx=0;entryDy=0;">
      <mxGeometry width="50" height="50" relative="1" as="geometry">
        <Array as="points">
          <mxPoint x="2678" y="2675" />
          <mxPoint x="1994" y="2675" />
        </Array>
      </mxGeometry>
    </mxCell>
    <mxCell id="edge40" edge="1" value="" parent="1" source="node1" target="node0" style="html=1;rounded=1;edgeStyle=orthogonalEdgeStyle;dashed=1;startArrow=none;endArrow=block;endSize=12;strokeColor=#008200;exitX=0.000;exitY=0.500;exitDx=0;exitDy=0;entryX=0.500;entryY=1.000;entryDx=0;entryDy=0;">
      <mxGeometry width="50" height="50" relative="1" as="geometry">
        <Array as="points">
          <mxPoint x="3213" y="3167" />
          <mxPoint x="3213" y="2421" />
          <mxPoint x="3549" y="2421" />
          <mxPoint x="3549" y="1935" />
          <mxPoint x="3194" y="1935" />
        </Array>
      </mxGeometry>
    </mxCell>
    <mxCell id="edge16" edge="1" value="" parent="1" source="node72" target="node7" style="html=1;rounded=1;edgeStyle=orthogonalEdgeStyle;dashed=1;startArrow=none;endArrow=block;endSize=12;strokeColor=#008200;exitX=0.500;exitY=0.000;exitDx=0;exitDy=0;entryX=1.000;entryY=0.500;entryDx=0;entryDy=0;">
      <mxGeometry width="50" height="50" relative="1" as="geometry">
        <Array as="points">
          <mxPoint x="5579" y="2596" />
          <mxPoint x="5440" y="2596" />
          <mxPoint x="5440" y="2815" />
          <mxPoint x="4356" y="2815" />
          <mxPoint x="4356" y="1923" />
        </Array>
      </mxGeometry>
    </mxCell>
    <mxCell id="edge14" edge="1" value="" parent="1" source="node6" target="node100" style="html=1;rounded=1;edgeStyle=orthogonalEdgeStyle;dashed=1;startArrow=none;endArrow=block;endSize=12;strokeColor=#008200;exitX=0.557;exitY=1.001;exitDx=0;exitDy=0;entryX=0.500;entryY=1.000;entryDx=0;entryDy=0;">
      <mxGeometry width="50" height="50" relative="1" as="geometry">
        <Array as="points">
          <mxPoint x="822" y="3007" />
          <mxPoint x="1503" y="3007" />
          <mxPoint x="1503" y="2903" />
          <mxPoint x="1529" y="2903" />
          <mxPoint x="1529" y="2675" />
          <mxPoint x="1994" y="2675" />
        </Array>
      </mxGeometry>
    </mxCell>
    <mxCell id="edge60" edge="1" value="" parent="1" source="node54" target="node10" style="html=1;rounded=1;edgeStyle=orthogonalEdgeStyle;dashed=1;startArrow=none;endArrow=block;endSize=12;strokeColor=#008200;exitX=0.661;exitY=0.000;exitDx=0;exitDy=0;entryX=0.500;entryY=1.000;entryDx=0;entryDy=0;">
      <mxGeometry width="50" height="50" relative="1" as="geometry">
        <Array as="points">
          <mxPoint x="2100" y="1970" />
          <mxPoint x="1365" y="1970" />
          <mxPoint x="1365" y="1415" />
          <mxPoint x="3086" y="1415" />
        </Array>
      </mxGeometry>
    </mxCell>
    <mxCell id="edge56" edge="1" value="" parent="1" source="node54" target="node100" style="html=1;rounded=1;edgeStyle=orthogonalEdgeStyle;dashed=1;startArrow=none;endArrow=block;endSize=12;strokeColor=#008200;exitX=0.500;exitY=0.000;exitDx=0;exitDy=0;entryX=0.500;entryY=1.000;entryDx=0;entryDy=0;">
      <mxGeometry width="50" height="50" relative="1" as="geometry">
        <Array as="points">
          <mxPoint x="2051" y="2675" />
          <mxPoint x="1994" y="2675" />
        </Array>
      </mxGeometry>
    </mxCell>
    <mxCell id="edge25" edge="1" value="" parent="1" source="node0" target="node10" style="html=1;rounded=1;edgeStyle=orthogonalEdgeStyle;dashed=0;startArrow=none;endArrow=block;endSize=12;strokeColor=#008200;exitX=0.615;exitY=1.000;exitDx=0;exitDy=0;entryX=0.614;entryY=1.000;entryDx=0;entryDy=0;">
      <mxGeometry width="50" height="50" relative="1" as="geometry">
        <Array as="points">
          <mxPoint x="3209" y="1914" />
          <mxPoint x="3101" y="1914" />
        </Array>
      </mxGeometry>
    </mxCell>
    <mxCell id="edge72" edge="1" value="" parent="1" source="node27" target="node78" style="html=1;rounded=1;edgeStyle=orthogonalEdgeStyle;dashed=0;startArrow=none;endArrow=block;endSize=12;strokeColor=#000082;exitX=0.000;exitY=0.500;exitDx=0;exitDy=0;entryX=0.500;entryY=0.000;entryDx=0;entryDy=0;">
      <mxGeometry width="50" height="50" relative="1" as="geometry">
        <Array as="points">
          <mxPoint x="3532" y="3626" />
          <mxPoint x="3532" y="2361" />
          <mxPoint x="3026" y="2361" />
        </Array>
      </mxGeometry>
    </mxCell>
    <mxCell id="edge1" edge="1" value="" parent="1" source="node64" target="node100" style="html=1;rounded=1;edgeStyle=orthogonalEdgeStyle;dashed=1;startArrow=none;endArrow=block;endSize=12;strokeColor=#008200;exitX=0.500;exitY=0.000;exitDx=0;exitDy=0;entryX=0.500;entryY=1.000;entryDx=0;entryDy=0;">
      <mxGeometry width="50" height="50" relative="1" as="geometry">
        <Array as="points">
          <mxPoint x="1132" y="3007" />
          <mxPoint x="1503" y="3007" />
          <mxPoint x="1503" y="2903" />
          <mxPoint x="1529" y="2903" />
          <mxPoint x="1529" y="2675" />
          <mxPoint x="1994" y="2675" />
        </Array>
      </mxGeometry>
    </mxCell>
    <mxCell id="edge75" edge="1" value="" parent="1" source="node78" target="node0" style="html=1;rounded=1;edgeStyle=orthogonalEdgeStyle;dashed=1;startArrow=none;endArrow=block;endSize=12;strokeColor=#008200;exitX=1.000;exitY=0.500;exitDx=0;exitDy=0;entryX=0.500;entryY=1.000;entryDx=0;entryDy=0;">
      <mxGeometry width="50" height="50" relative="1" as="geometry">
        <Array as="points">
          <mxPoint x="3213" y="2667" />
          <mxPoint x="3213" y="2421" />
          <mxPoint x="3549" y="2421" />
          <mxPoint x="3549" y="1935" />
          <mxPoint x="3194" y="1935" />
        </Array>
      </mxGeometry>
    </mxCell>
    <mxCell id="edge24" edge="1" value="" parent="1" source="node78" target="node100" style="html=1;rounded=1;edgeStyle=orthogonalEdgeStyle;dashed=1;startArrow=none;endArrow=block;endSize=12;strokeColor=#008200;exitX=0.500;exitY=1.000;exitDx=0;exitDy=0;entryX=0.500;entryY=1.000;entryDx=0;entryDy=0;">
      <mxGeometry width="50" height="50" relative="1" as="geometry">
        <Array as="points">
          <mxPoint x="3026" y="2903" />
          <mxPoint x="1529" y="2903" />
          <mxPoint x="1529" y="2675" />
          <mxPoint x="1994" y="2675" />
        </Array>
      </mxGeometry>
    </mxCell>
    <mxCell id="edge49" edge="1" value="" parent="1" source="node7" target="node10" style="html=1;rounded=1;edgeStyle=orthogonalEdgeStyle;dashed=0;startArrow=none;endArrow=block;endSize=12;strokeColor=#008200;exitX=0.500;exitY=1.001;exitDx=0;exitDy=0;entryX=0.614;entryY=1.000;entryDx=0;entryDy=0;">
      <mxGeometry width="50" height="50" relative="1" as="geometry">
        <Array as="points">
          <mxPoint x="4271" y="2256" />
          <mxPoint x="3672" y="2256" />
          <mxPoint x="3672" y="1914" />
          <mxPoint x="3101" y="1914" />
        </Array>
      </mxGeometry>
    </mxCell>
    <mxCell id="edge33" edge="1" value="" parent="1" source="node23" target="node7" style="html=1;rounded=1;edgeStyle=orthogonalEdgeStyle;dashed=1;startArrow=none;endArrow=block;endSize=12;strokeColor=#008200;exitX=1.000;exitY=0.288;exitDx=0;exitDy=0;entryX=1.000;entryY=0.500;entryDx=0;entryDy=0;">
      <mxGeometry width="50" height="50" relative="1" as="geometry">
        <Array as="points">
          <mxPoint x="5222" y="2558" />
          <mxPoint x="5222" y="2596" />
          <mxPoint x="5440" y="2596" />
          <mxPoint x="5440" y="2815" />
          <mxPoint x="4356" y="2815" />
          <mxPoint x="4356" y="1923" />
        </Array>
      </mxGeometry>
    </mxCell>
    <mxCell id="edge32" edge="1" value="" parent="1" source="node69" target="node100" style="html=1;rounded=1;edgeStyle=orthogonalEdgeStyle;dashed=1;startArrow=none;endArrow=block;endSize=12;strokeColor=#008200;exitX=0.500;exitY=1.000;exitDx=0;exitDy=0;entryX=0.500;entryY=1.000;entryDx=0;entryDy=0;">
      <mxGeometry width="50" height="50" relative="1" as="geometry">
        <Array as="points">
          <mxPoint x="1687" y="2903" />
          <mxPoint x="1529" y="2903" />
          <mxPoint x="1529" y="2675" />
          <mxPoint x="1994" y="2675" />
        </Array>
      </mxGeometry>
    </mxCell>
    <mxCell id="edge58" edge="1" value="" parent="1" source="node104" target="node7" style="html=1;rounded=1;edgeStyle=orthogonalEdgeStyle;dashed=1;startArrow=none;endArrow=block;endSize=12;strokeColor=#008200;exitX=0.500;exitY=0.000;exitDx=0;exitDy=0;entryX=1.000;entryY=0.500;entryDx=0;entryDy=0;">
      <mxGeometry width="50" height="50" relative="1" as="geometry">
        <Array as="points">
          <mxPoint x="6859" y="2219" />
          <mxPoint x="6079" y="2219" />
          <mxPoint x="6079" y="2596" />
          <mxPoint x="5440" y="2596" />
          <mxPoint x="5440" y="2815" />
          <mxPoint x="4356" y="2815" />
          <mxPoint x="4356" y="1923" />
        </Array>
      </mxGeometry>
    </mxCell>
    <mxCell id="edge23" edge="1" value="" parent="1" source="node70" target="node78" style="html=1;rounded=1;edgeStyle=orthogonalEdgeStyle;dashed=0;startArrow=none;endArrow=block;endSize=12;strokeColor=#000082;exitX=0.500;exitY=1.000;exitDx=0;exitDy=0;entryX=0.500;entryY=0.000;entryDx=0;entryDy=0;">
      <mxGeometry width="50" height="50" relative="1" as="geometry">
        <Array as="points">
          <mxPoint x="3204" y="2361" />
          <mxPoint x="3026" y="2361" />
        </Array>
      </mxGeometry>
    </mxCell>
    <mxCell id="edge7" edge="1" value="" parent="1" source="node21" target="node80" style="html=1;rounded=1;edgeStyle=orthogonalEdgeStyle;dashed=0;startArrow=none;endArrow=block;endSize=12;strokeColor=#000082;exitX=0.500;exitY=1.001;exitDx=0;exitDy=0;entryX=0.500;entryY=1.000;entryDx=0;entryDy=0;">
      <mxGeometry width="50" height="50" relative="1" as="geometry">
        <Array as="points">
          <mxPoint x="1012" y="1257" />
          <mxPoint x="653" y="1257" />
        </Array>
      </mxGeometry>
    </mxCell>
  </root>
</mxGraphModel>